<?xml version="1.0" encoding="UTF-8" standalone="no"?>
<!-- Created with Inkscape (http://www.inkscape.org/) -->

<svg
   xmlns:dc="http://purl.org/dc/elements/1.1/"
   xmlns:cc="http://creativecommons.org/ns#"
   xmlns:rdf="http://www.w3.org/1999/02/22-rdf-syntax-ns#"
   xmlns:svg="http://www.w3.org/2000/svg"
   xmlns="http://www.w3.org/2000/svg"
   xmlns:sodipodi="http://sodipodi.sourceforge.net/DTD/sodipodi-0.dtd"
   xmlns:inkscape="http://www.inkscape.org/namespaces/inkscape"
   width="800px"
   height="400px"
   viewBox="0 0 800 400"
   version="1.1"
   id="SVGRoot"
   inkscape:version="0.92.0 r"
   sodipodi:docname="flisol_bnu_logo_novo.svg">
  <sodipodi:namedview
     id="base"
     pagecolor="#ffffff"
     bordercolor="#666666"
     borderopacity="1.0"
     inkscape:pageopacity="0.0"
     inkscape:pageshadow="2"
     inkscape:zoom="0.98994949"
     inkscape:cx="-157.77506"
     inkscape:cy="234.12384"
     inkscape:document-units="px"
     inkscape:current-layer="layer1"
     showgrid="false"
     inkscape:window-width="2560"
     inkscape:window-height="1016"
     inkscape:window-x="0"
     inkscape:window-y="27"
     inkscape:window-maximized="1" />
  <defs
     id="defs1330" />
  <metadata
     id="metadata1333">
    <rdf:RDF>
      <cc:Work
         rdf:about="">
        <dc:format>image/svg+xml</dc:format>
        <dc:type
           rdf:resource="http://purl.org/dc/dcmitype/StillImage" />
        <dc:title />
      </cc:Work>
    </rdf:RDF>
  </metadata>
  <g
     id="layer1"
     inkscape:groupmode="layer"
     inkscape:label="Layer 1">
    <g
       id="g6375"
       transform="matrix(3.8077676,0,0,3.8073782,-1207.92,1225.2276)">
      <path
         style="color:#000000;font-style:normal;font-variant:normal;font-weight:normal;font-stretch:normal;font-size:medium;line-height:normal;font-family:sans-serif;text-indent:0;text-align:start;text-decoration:none;text-decoration-line:none;text-decoration-style:solid;text-decoration-color:#000000;letter-spacing:normal;word-spacing:normal;text-transform:none;writing-mode:lr-tb;direction:ltr;baseline-shift:baseline;text-anchor:start;white-space:normal;clip-rule:nonzero;display:inline;overflow:visible;visibility:visible;opacity:1;isolation:auto;mix-blend-mode:normal;color-interpolation:sRGB;color-interpolation-filters:linearRGB;solid-color:#000000;solid-opacity:1;fill:#ff8e2a;fill-opacity:1;fill-rule:nonzero;stroke:none;stroke-width:7.61514568;stroke-linecap:round;stroke-linejoin:round;stroke-miterlimit:4;stroke-dasharray:none;stroke-dashoffset:0;stroke-opacity:1;color-rendering:auto;image-rendering:auto;shape-rendering:auto;text-rendering:auto;enable-background:accumulate"
         d="M 530.74023 26.802734 C 522.7665 26.876217 516.4773 31.769769 512.16797 38.171875 C 511.87134 38.16426 511.58626 38.051642 511.28906 38.054688 L 511.27734 38.054688 C 500.64434 38.152918 491.22281 45.465327 488.4707 55.757812 L 488.48242 55.757812 C 488.16409 56.945334 488.39752 58.116351 488.27148 59.308594 L 479.41406 43.931641 C 470.73262 28.866721 451.04568 23.577135 436.00781 32.269531 L 408.47461 48.199219 C 393.44695 56.90102 388.17482 76.62887 396.84766 91.695312 L 404.78906 105.48633 C 405.86129 107.34855 407.52922 108.5731 408.9082 110.12891 C 399.77805 109.92255 391.22156 113.44868 385.06836 119.98047 C 387.06451 115.83305 388.38989 111.34156 388.38867 106.48438 C 388.39248 89.076623 373.96934 74.622651 356.59766 74.626953 L 308.91992 74.626953 C 288.77637 74.626953 271.51074 84.782649 259.83594 99.583984 C 258.26455 92.842831 254.86994 86.982195 249.74609 82.597656 C 256.61119 76.7231 261.24459 68.322234 261.24219 58.708984 C 261.246 41.309951 246.83761 26.858176 229.47461 26.849609 L 229.46289 26.849609 C 212.09182 26.845802 197.6657 41.301232 197.66992 58.708984 C 197.66669 68.321282 202.30439 76.72329 209.16797 82.597656 C 202.31071 88.466616 197.68923 96.85911 197.68359 106.46094 C 197.67217 89.063846 183.25439 74.622651 165.89062 74.626953 C 165.88845 57.233212 151.48014 42.787825 134.12109 42.779297 L 134.03906 42.779297 L 133.95703 42.779297 C 133.44409 42.783066 132.93214 42.832773 132.41992 42.861328 C 89.400487 43.773728 54.675923 79.283976 54.640625 122.40234 L 54.628906 122.40234 C 37.265905 122.40996 22.85511 136.86269 22.859375 154.26172 C 22.855567 171.66083 37.265867 186.11057 54.628906 186.11914 L 54.640625 186.11914 L 54.640625 249.8125 C 54.636893 267.22033 69.059919 281.67618 86.431641 281.67188 L 86.443359 281.67188 C 103.80644 281.66426 118.21719 267.21161 118.21289 249.8125 L 118.21289 186.11914 C 124.09833 186.12024 129.33528 184.01683 134.09766 181.14648 L 134.09766 249.8125 C 134.09552 293.60413 169.86553 329.44997 213.56641 329.44727 L 261.24414 329.44727 C 278.6159 329.45107 293.0395 314.99572 293.03516 297.58789 C 293.03896 280.18014 278.61582 265.72617 261.24414 265.73047 L 277.13867 265.74219 L 356.60938 265.74219 L 356.62109 265.74219 C 365.99856 265.72315 374.89558 263.12569 383.23828 259.20508 L 393.72656 277.4043 C 402.41033 292.4632 422.09957 297.74365 437.13477 289.05273 L 437.13477 289.06445 L 450.90625 281.09375 L 450.91797 281.09375 C 452.76793 280.02254 453.98285 278.35642 455.5293 276.98047 C 455.2182 291.29157 464.12198 304.79512 478.43945 308.63867 L 478.43945 308.62695 L 493.78516 312.75391 C 504.07911 315.52457 514.56916 310.61268 519.9707 301.89062 C 530.20191 301.56547 539.68622 294.91644 542.44727 284.60938 C 542.76331 283.42974 542.5314 282.26647 542.6582 281.08203 L 551.50391 296.44727 L 551.50391 296.45898 C 560.19186 311.52592 579.88645 316.80159 594.92188 308.09766 L 622.44531 292.17969 C 625.04609 290.67596 626.93603 288.49076 628.93164 286.4082 C 642.31282 311.60155 667.95788 329.44357 698.27734 329.44727 L 745.95508 329.44727 C 763.32676 329.45107 777.75043 314.99572 777.74609 297.58789 C 777.7499 280.18014 763.32676 265.7262 745.95508 265.73047 L 698.27734 265.73047 C 689.31367 265.72936 682.39376 258.79479 682.39258 249.8125 L 682.39258 106.48438 C 682.39639 89.076623 667.97129 74.620698 650.59961 74.625 C 648.52868 74.625419 646.68673 75.584224 644.6875 75.978516 L 637.20312 62.988281 C 628.52119 47.909769 608.81602 42.618203 593.77344 51.326172 L 580.02344 59.285156 C 578.16993 60.356781 576.95161 62.021004 575.40234 63.398438 C 575.71877 49.083 566.81163 35.573016 552.49023 31.728516 L 552.47852 31.728516 L 537.12109 27.613281 C 535.04396 27.055919 532.90212 26.784002 530.75195 26.802734 L 530.74023 26.802734 z M 530.89062 42.728516 A 7.9461507 7.9626506 0 0 1 533.01953 42.998047 L 548.36914 47.119141 A 15.892301 15.925302 0 0 1 559.60938 66.625 L 550.95117 98.994141 A 79.461511 79.626514 0 0 1 584.2793 130.37305 A 79.461511 79.626514 0 0 1 584.2793 130.37695 L 625.57031 106.48828 L 609.67969 78.904297 L 595.91602 86.867188 L 599.88867 93.763672 A 7.9461507 7.9626506 0 0 1 596.98047 104.64062 A 7.9461507 7.9626506 0 0 1 586.125 101.72656 L 582.15234 94.830078 A 15.892301 15.925302 0 0 1 587.96875 73.072266 L 601.73242 65.111328 A 15.892301 15.925302 0 0 1 623.44141 70.943359 L 638.19141 96.541016 A 15.892301 15.925302 0 0 1 650.60547 90.560547 A 15.892301 15.925302 0 0 1 666.49609 106.48438 L 666.49609 249.8125 A 31.784603 31.850603 0 0 0 698.28125 281.66406 L 745.95898 281.66406 A 15.892301 15.925302 0 0 1 761.85156 297.58789 A 15.892301 15.925302 0 0 1 745.95898 313.51367 L 698.28125 313.51367 A 63.569206 63.701207 0 0 1 634.71289 249.8125 L 634.71289 209.72266 A 15.892301 15.925302 0 0 1 618.81055 214.42578 L 586.50781 205.75 A 79.461511 79.626514 0 0 1 555.19141 239.14648 L 579.0293 280.52148 L 606.55664 264.5957 L 598.60938 250.80469 L 591.72852 254.78711 A 7.9461507 7.9626506 0 0 1 580.875 251.87109 A 7.9461507 7.9626506 0 0 1 583.7832 240.99414 L 590.66406 237.01367 A 15.892301 15.925302 0 0 1 612.37305 242.8418 L 620.31836 256.63477 A 15.892301 15.925302 0 0 1 614.50195 278.38867 L 586.97656 294.3125 A 15.892301 15.925302 0 0 1 565.26758 288.48438 L 540.625 245.71289 A 79.461511 79.626514 0 0 1 494.91016 247.05469 L 486.66797 277.87109 L 502.01758 281.99219 A 7.9461507 7.9626506 0 0 1 507.63672 291.74805 A 7.9461507 7.9626506 0 0 1 497.9043 297.37695 L 482.55664 293.25586 A 15.892301 15.925302 0 0 1 471.31641 273.75 L 479.97266 241.38086 A 79.461511 79.626514 0 0 1 446.64648 210 L 405.35742 233.88672 L 421.25 261.4707 L 435.01172 253.50781 L 431.03906 246.61133 A 7.9461507 7.9626506 0 0 1 433.94727 235.73438 A 7.9461507 7.9626506 0 0 1 444.80273 238.65039 L 448.77539 245.54492 A 15.892301 15.925302 0 0 1 442.95898 267.29883 L 429.19531 275.26172 A 15.892301 15.925302 0 0 1 407.48633 269.43359 L 391.59375 241.84961 A 15.892301 15.925302 0 0 1 389.66602 236.37891 A 47.676906 47.775907 0 0 1 356.59766 249.8125 L 277.13477 249.8125 A 15.892301 15.925302 0 0 1 261.24219 233.88672 A 15.892301 15.925302 0 0 1 277.13477 217.96289 L 356.59766 217.96289 A 15.892363 15.925363 0 0 0 372.49023 202.03711 A 15.892363 15.925363 0 0 0 356.59766 186.11133 L 308.91992 186.11133 A 47.676906 47.775907 0 0 1 261.24219 138.33594 A 47.676906 47.775907 0 0 1 308.91992 90.560547 L 356.59766 90.560547 A 15.892301 15.925302 0 0 1 372.49023 106.48438 A 15.892301 15.925302 0 0 1 356.59766 122.41016 L 308.91992 122.41016 A 15.892363 15.925363 0 0 0 293.02734 138.33594 A 15.892363 15.925363 0 0 0 308.91992 154.26172 L 356.59766 154.26172 A 47.676906 47.775907 0 0 1 404.27344 202.03711 A 47.676906 47.775907 0 0 1 401.58594 217.67969 L 440.09375 195.40234 A 79.461511 79.626514 0 0 1 438.75586 149.5918 L 408.00195 141.33398 L 403.88867 156.71484 L 403.88477 156.71484 A 7.9461507 7.9626506 0 0 1 394.1543 162.34766 A 7.9461507 7.9626506 0 0 1 388.53711 152.59375 L 392.65039 137.21289 A 15.892301 15.925302 0 0 1 412.11523 125.94922 L 444.41797 134.625 A 79.461511 79.626514 0 0 1 475.73047 101.22852 A 79.461511 79.626514 0 0 0 475.73242 101.22852 L 451.89453 59.851562 L 424.36914 75.775391 L 432.31445 89.568359 L 439.19727 85.585938 A 7.9461507 7.9626506 0 0 1 450.05078 88.5 A 7.9461507 7.9626506 0 0 1 447.14258 99.380859 L 440.26172 103.36133 A 15.892301 15.925302 0 0 1 418.55273 97.529297 L 410.60547 83.738281 A 15.892301 15.925302 0 0 1 416.42188 61.984375 L 443.94922 46.058594 A 15.892301 15.925302 0 0 1 465.6582 51.888672 L 490.30273 94.662109 A 79.461511 79.626514 0 0 1 536.01562 93.322266 L 544.25586 62.503906 L 528.9043 58.382812 A 7.9461507 7.9626506 0 0 1 523.28711 48.628906 A 7.9461507 7.9626506 0 0 1 530.89062 42.728516 z M 229.45898 42.78125 A 15.892301 15.925302 0 0 1 245.35156 58.707031 A 15.892301 15.925302 0 0 1 229.45898 74.632812 A 15.892301 15.925302 0 0 1 213.56641 58.707031 A 15.892301 15.925302 0 0 1 229.45898 42.78125 z M 511.42578 53.986328 A 7.9461507 7.9626506 0 0 1 513.55469 54.255859 A 7.9461507 7.9626506 0 0 1 519.17383 64.009766 A 7.9461507 7.9626506 0 0 1 509.44336 69.640625 A 7.9461507 7.9626506 0 0 1 503.82422 59.888672 A 7.9461507 7.9626506 0 0 1 511.42578 53.986328 z M 134.10547 58.707031 L 134.10547 58.708984 A 15.892301 15.925302 0 0 1 149.99609 74.634766 A 15.892301 15.925302 0 0 1 134.10547 90.560547 A 31.784603 31.850603 0 0 0 102.32031 122.41016 L 102.32031 138.33594 L 118.21289 138.33594 A 15.892301 15.925302 0 0 1 134.10547 154.26172 A 15.892301 15.925302 0 0 1 118.21289 170.18555 L 102.32031 170.18555 L 102.32031 249.8125 A 15.892301 15.925302 0 0 1 86.427734 265.73828 A 15.892301 15.925302 0 0 1 70.535156 249.8125 L 70.535156 170.18555 L 54.642578 170.18555 A 15.892301 15.925302 0 0 1 38.75 154.26172 A 15.892301 15.925302 0 0 1 54.642578 138.33594 L 70.535156 138.33594 L 70.535156 122.41016 A 63.569206 63.701207 0 0 1 132.76367 58.775391 A 15.892301 15.925302 0 0 1 134.10547 58.707031 z M 522.66602 73.490234 A 7.9461507 7.9626506 0 0 1 524.79102 73.761719 A 7.9461507 7.9626506 0 0 1 530.41211 83.513672 A 7.9461507 7.9626506 0 0 1 520.67969 89.146484 A 7.9461507 7.9626506 0 0 1 515.06055 79.390625 A 7.9461507 7.9626506 0 0 1 522.66602 73.490234 z M 165.88867 90.558594 L 165.88867 90.560547 A 15.892301 15.925302 0 0 1 181.78125 106.48438 L 181.78125 249.8125 A 31.784603 31.850603 0 0 0 213.56641 281.66406 L 261.24219 281.66406 A 15.892301 15.925302 0 0 1 277.13477 297.58789 A 15.892301 15.925302 0 0 1 261.24219 313.51172 L 213.56641 313.51172 A 63.569206 63.701207 0 0 1 149.99609 249.81055 L 149.99609 106.48242 A 15.892301 15.925302 0 0 1 165.88867 90.558594 z M 229.45898 90.558594 A 15.892301 15.925302 0 0 1 245.35156 106.48242 L 245.35156 233.88477 A 15.892301 15.925302 0 0 1 229.45898 249.81055 A 15.892301 15.925302 0 0 1 213.56641 233.88477 L 213.56641 106.48242 A 15.892301 15.925302 0 0 1 229.45898 90.558594 z M 479.15039 105.89258 L 479.15039 105.89453 A 7.9461507 7.9626506 0 0 0 475.36328 106.95703 A 7.9461507 7.9626506 0 0 0 472.45508 117.83398 L 480.40234 131.62695 A 7.9461507 7.9626506 0 0 0 491.25586 134.54102 L 495.22852 141.43945 L 474.58203 153.38086 A 7.9461507 7.9626506 0 0 0 471.67383 164.25977 L 483.5918 184.94727 A 7.9461507 7.9626506 0 0 0 494.44727 187.86328 L 501.33203 183.88086 L 529.14062 232.15234 A 7.9461507 7.9626506 0 0 0 539.99805 235.06641 A 7.9461507 7.9626506 0 0 0 542.90625 224.18945 L 556.66992 216.22656 A 7.9461507 7.9626506 0 0 0 559.57812 205.34961 L 551.63086 191.55664 L 565.39453 183.5957 A 7.9461507 7.9626506 0 0 0 568.30273 172.7168 L 552.41016 145.13477 A 7.9461507 7.9626506 0 0 0 541.55664 142.2207 L 520.91211 154.16406 A 7.9461507 7.9626506 0 0 0 518.00391 165.04102 A 7.9461507 7.9626506 0 0 0 528.85742 167.95508 L 542.62109 159.99219 L 550.56641 173.78516 L 536.80469 181.74805 A 7.9461507 7.9626506 0 0 0 533.89453 192.625 L 541.8418 206.41602 L 534.96094 210.39648 L 511.12109 169.02344 A 7.9461507 7.9626506 0 0 0 500.26758 166.10742 L 493.38281 170.08984 L 489.41211 163.19336 L 510.05664 151.25 A 7.9461507 7.9626506 0 0 0 512.96484 140.37305 L 501.04688 119.68164 A 7.9461507 7.9626506 0 0 0 490.19141 116.76758 L 486.21875 109.87109 A 7.9461507 7.9626506 0 0 0 479.70898 105.90039 A 7.9461507 7.9626506 0 0 0 479.15039 105.89258 z M 634.71289 119.50391 A 15.892301 15.925302 0 0 1 633.51758 120.27734 L 590.83203 144.97461 A 79.461511 79.626514 0 0 1 592.16992 190.78125 L 622.92383 199.03906 L 627.03711 183.65625 A 7.9461507 7.9626506 0 0 1 634.71289 177.76367 L 634.71289 119.50391 z M 426.84375 154.93359 A 7.9461507 7.9626506 0 0 1 428.96875 155.20508 A 7.9461507 7.9626506 0 0 1 434.58984 164.95898 A 7.9461507 7.9626506 0 0 1 424.85547 170.58789 A 7.9461507 7.9626506 0 0 1 419.23828 160.83398 A 7.9461507 7.9626506 0 0 1 426.84375 154.93359 z M 623.4043 158.25 A 7.9461507 7.9626506 0 0 1 625.53125 158.52344 A 7.9461507 7.9626506 0 0 1 631.14844 168.27539 A 7.9461507 7.9626506 0 0 1 621.41797 173.9043 A 7.9461507 7.9626506 0 0 1 615.80078 164.15234 A 7.9461507 7.9626506 0 0 1 623.4043 158.25 z M 407.37695 166.19727 A 7.9461507 7.9626506 0 0 1 409.50781 166.4668 A 7.9461507 7.9626506 0 0 1 415.125 176.21875 A 7.9461507 7.9626506 0 0 1 405.39453 181.84766 A 7.9461507 7.9626506 0 0 1 399.77344 172.09766 A 7.9461507 7.9626506 0 0 1 407.37695 166.19727 z M 603.93945 169.51172 A 7.9461507 7.9626506 0 0 1 606.06641 169.7832 A 7.9461507 7.9626506 0 0 1 611.6875 179.53516 A 7.9461507 7.9626506 0 0 1 601.95312 185.16797 A 7.9461507 7.9626506 0 0 1 596.33398 175.41211 A 7.9461507 7.9626506 0 0 1 603.93945 169.51172 z M 508.11719 250.95508 A 7.9461507 7.9626506 0 0 1 510.24609 251.22656 A 7.9461507 7.9626506 0 0 1 515.86523 260.98047 A 7.9461507 7.9626506 0 0 1 506.13086 266.60938 A 7.9461507 7.9626506 0 0 1 500.51172 256.85547 A 7.9461507 7.9626506 0 0 1 508.11719 250.95508 z M 519.35352 270.46094 A 7.9461507 7.9626506 0 0 1 521.48242 270.73242 A 7.9461507 7.9626506 0 0 1 527.10156 280.48242 A 7.9461507 7.9626506 0 0 1 517.36914 286.11328 A 7.9461507 7.9626506 0 0 1 511.75195 276.36133 A 7.9461507 7.9626506 0 0 1 519.35352 270.46094 z "
         transform="matrix(0.26262107,0,0,0.26264793,317.22524,-321.80349)"
         id="path5601-3" />
    </g>
    <text
       xml:space="preserve"
       style="font-style:normal;font-variant:normal;font-weight:normal;font-stretch:normal;font-size:26.53333282px;line-height:6.04632044px;font-family:Comfortaa;-inkscape-font-specification:'Comfortaa, Normal';font-variant-ligatures:normal;font-variant-caps:normal;font-variant-numeric:normal;font-feature-settings:normal;text-align:start;letter-spacing:0px;word-spacing:0px;writing-mode:lr;text-anchor:start;fill:#ff8e2a;fill-opacity:1;stroke:none;stroke-width:1.13114023px;stroke-linecap:butt;stroke-linejoin:miter;stroke-opacity:1;"
       x="21.755257"
       y="365.42569"
       id="text5164"
       transform="scale(1.0000512,0.9999488)"><tspan
         sodipodi:role="line"
         id="tspan5162"
         x="21.755257"
         y="365.42569"
         style="font-style:normal;font-variant:normal;font-weight:normal;font-stretch:normal;font-size:26.53333282px;font-family:Comfortaa;-inkscape-font-specification:'Comfortaa, Normal';font-variant-ligatures:normal;font-variant-caps:normal;font-variant-numeric:normal;font-feature-settings:normal;text-align:start;writing-mode:lr;text-anchor:start;fill:#ff8e2a;fill-opacity:1;stroke-width:1.13114023px;">Festival Latino-americano de Instalação de Software Livre</tspan></text>
    <path
       style="fill:#de1921;fill-opacity:1;stroke-width:0.01661606"
       inkscape:connector-curvature="0"
       d="m 303.27789,30.417892 c -1.69485,0.215972 -3.68871,0.747727 -5.61621,1.511981 -0.91389,0.349013 -1.7613,0.714495 -1.86101,0.780956 -0.13291,0.0834 0.59823,0.465293 1.99392,1.013633 8.34128,3.356446 15.93481,8.075419 21.18543,13.20975 l 1.87775,1.844349 0.33219,-0.415358 c 0.68138,-0.88065 1.44563,-2.675239 1.64509,-3.854968 0.29907,-1.694781 0.0337,-3.27334 -0.8309,-5.051226 -1.42893,-2.974317 -3.57242,-4.669156 -6.46362,-5.134331 l -0.73104,-0.116396 0.53165,0.88065 c 1.87768,3.140473 2.89115,6.048271 2.80815,8.075477 l -0.0499,1.129853 -0.56499,-1.578501 c -1.5452,-4.386606 -3.45602,-8.540711 -4.56933,-10.002932 -1.29602,-1.694837 -5.84883,-2.774814 -9.68716,-2.292937 z"
       id="path10-4"
       inkscape:export-xdpi="90.690002"
       inkscape:export-ydpi="90.690002" />
    <path
       style="fill:#de1921;fill-opacity:1;stroke-width:0.01661606"
       inkscape:connector-curvature="0"
       d="m 297.44571,35.784841 c 1.31259,2.326227 3.30657,6.330704 3.52254,7.045199 0.16614,0.531755 1.08009,0.614803 4.61927,0.398831 1.67826,-0.09957 3.33992,-0.182742 3.70534,-0.166213 h 0.66468 l -0.74766,0.232675 c -1.41246,0.448589 -3.72205,0.747726 -5.68268,0.747726 -1.08009,0 -1.96075,0.04988 -1.96075,0.132924 0,0.199386 0.83078,1.362471 1.89429,2.675064 3.19029,3.871672 8.75657,7.095077 14.67198,8.474307 1.79441,0.415358 4.63586,0.847419 5.68266,0.847419 1.19638,0 0.5981,0.282434 -1.296,0.581513 -1.22973,0.215972 -2.25989,0.265906 -3.65564,0.215972 -2.4425,-0.116279 -3.63889,-0.498406 -7.27776,-2.376101 l -2.70847,-1.379058 0.79765,0.99693 c 2.04374,2.625305 5.86537,5.333717 9.55417,6.79594 0.48188,0.199443 1.61174,0.515107 2.52562,0.731196 1.62837,0.365425 1.64496,0.382128 0.99692,0.498408 -1.52867,0.299078 -5.30042,-0.415359 -9.28831,-1.761243 -1.0801,-0.365541 -1.99398,-0.631446 -2.02721,-0.598215 -0.13281,0.132924 2.04386,2.010561 2.97432,2.575545 2.67524,1.611674 5.53316,2.376103 8.95613,2.425862 1.16308,0 1.97727,0.066 1.82764,0.132983 -0.14951,0.066 -1.36252,0.116337 -2.69176,0.116337 -2.54226,0.01624 -4.8519,-0.332311 -5.99834,-0.88065 -0.41547,-0.216089 -0.14963,0.116278 1.01346,1.212902 1.82782,1.728069 1.92751,1.645019 -1.41229,1.262777 -1.17973,-0.132923 -2.22659,-0.249203 -2.32629,-0.249203 -0.0833,0 1.08003,0.830774 2.59219,1.844348 l 2.77482,1.82782 2.95761,0.48182 c 1.64509,0.265906 4.80214,0.714495 7.04533,0.997046 2.24311,0.265789 4.30343,0.531638 4.60256,0.564867 0.43206,0.066 0.51506,0.03364 0.43206,-0.199385 -0.24919,-0.764313 -4.81872,-9.853246 -5.86552,-11.664422 -4.46965,-7.77634 -8.7898,-12.91073 -14.40613,-17.097891 -4.76873,-3.55589 -11.46503,-7.294521 -17.01483,-9.487764 l -0.76432,-0.299079 z"
       id="path14-9"
       inkscape:export-xdpi="90.690002"
       inkscape:export-ydpi="90.690002" />
    <path
       style="fill:#427331;fill-opacity:1;stroke-width:0.01661606"
       inkscape:connector-curvature="0"
       d="m 321.18996,36.515923 c 0.83089,1.129853 1.09675,1.395701 1.57862,1.545327 0.5317,0.182742 7.95902,7.52702 8.95607,8.889549 0.28244,0.365541 0.74773,0.930526 1.06339,1.246248 0.91388,0.963699 2.94097,4.1207 3.82162,5.981751 1.54539,3.273455 1.92752,5.815596 1.778,11.631191 -0.0499,2.24318 -0.14956,4.419954 -0.19939,4.851898 l -0.0995,0.764428 0.73103,0.09957 c 0.38224,0.04988 3.25675,0.365599 6.36405,0.681264 3.10712,0.315666 7.44397,0.814189 9.63721,1.080037 3.85497,0.481877 10.76719,1.561913 11.29901,1.7613 0.18267,0.0834 0.13286,-0.1828 -0.23268,-0.996989 -1.56192,-3.456195 -2.39269,-7.576953 -3.17359,-15.635727 -0.9804,-10.152384 -1.64507,-11.980204 -5.06804,-13.990707 -2.85793,-1.678194 -6.29742,-2.45915 -15.70213,-3.539187 -5.21739,-0.598215 -6.99539,-0.864121 -9.22186,-1.412462 -1.27948,-0.298963 -9.45454,-2.575371 -11.44845,-3.173587 -0.2825,-0.09957 -0.2825,-0.066 -0.0833,0.215972 z"
       id="path18-9"
       inkscape:export-xdpi="90.690002"
       inkscape:export-ydpi="90.690002" />
    <path
       style="fill:#de1921;fill-opacity:1;stroke-width:0.01661606"
       inkscape:connector-curvature="0"
       d="m 322.96796,40.071811 c 0.18275,0.764255 0.26586,1.894224 0.26586,3.971248 0.0162,3.223521 -0.19939,4.353374 -0.99699,5.300487 l -0.43194,0.515109 0.81418,0.963699 c 3.37303,3.921429 7.32758,10.285365 10.46811,16.815456 0.94711,1.960685 1.86087,3.838265 2.0105,4.154046 0.2492,0.498407 0.36554,0.581571 0.86401,0.581571 h 0.58151 l 0.19944,-1.329296 c 0.7976,-5.466642 0.61475,-10.983276 -0.46517,-14.372835 -0.3656,-1.146555 -2.09368,-4.652511 -2.29311,-4.652511 -0.0661,0 -0.33232,0.880533 -0.58152,1.944041 -0.2659,1.080036 -0.54834,2.077022 -0.63151,2.209947 -0.11621,0.199386 -0.13291,0.166154 -0.0659,-0.0834 0.0499,-0.182742 0.28261,-1.329297 0.51522,-2.525613 l 0.43195,-2.209889 -0.78097,-1.096739 c -0.96369,-1.345883 -0.83077,-1.595202 -1.64496,3.09054 -0.33237,1.861051 -0.63145,3.422965 -0.66468,3.472724 -0.1662,0.149627 -0.0499,-2.492323 0.23262,-5.632739 l 0.29915,-3.240165 -0.76432,-0.897236 c -0.91388,-1.096623 -5.28396,-5.732606 -6.6299,-7.061845 l -0.99688,-0.963699 z"
       id="path26-1"
       inkscape:export-xdpi="90.690002"
       inkscape:export-ydpi="90.690002" />
    <path
       style="fill:#427331;fill-opacity:1;stroke-width:0.01661606"
       inkscape:connector-curvature="0"
       d="m 302.16455,48.180461 c -0.0499,0.149511 -0.31566,1.379056 -0.5981,2.758229 -0.91388,4.369962 -1.6616,7.576954 -2.34286,9.986288 -0.3489,1.279363 -0.64798,2.409332 -0.64798,2.509026 0,0.365482 7.85933,2.808046 12.46203,3.871438 1.2296,0.282551 2.39268,0.564985 2.57554,0.61486 0.21598,0.06605 0.11622,-0.09957 -0.29913,-0.481936 -0.78096,-0.747726 -0.84741,-1.511981 -0.18286,-2.193246 0.34902,-0.348895 0.59821,-0.432059 1.22973,-0.432059 0.76424,0 0.79748,-0.01624 0.61474,-0.382127 -0.0833,-0.199387 -0.66468,-0.681265 -1.2629,-1.063392 -2.32622,-1.478866 -3.63888,-3.007549 -3.40626,-3.954719 0.13292,-0.564869 0.83083,-1.080036 1.46216,-1.080036 l 0.51511,-0.01624 -0.78096,-0.664561 c -0.88064,-0.747726 -2.22647,-2.376103 -3.30656,-4.004479 -0.48182,-0.697908 -1.12986,-1.379173 -1.81113,-1.894282 -0.59821,-0.448589 -1.7613,-1.495452 -2.60871,-2.326169 -1.12985,-1.12997 -1.56191,-1.445692 -1.61186,-1.246248 z"
       id="path32-9"
       inkscape:export-xdpi="90.690002"
       inkscape:export-ydpi="90.690002" />
    <path
       style="fill:#427331;fill-opacity:1;stroke-width:0.01661606"
       inkscape:connector-curvature="0"
       d="m 287.72526,63.865947 c -2.25976,0.714497 -3.157,3.190292 -2.79151,7.693292 0.31578,3.7054 0.78095,5.06787 2.01061,5.782365 0.56487,0.348896 0.86401,0.348896 13.54207,0.465291 32.56746,0.282435 54.83297,1.478751 78.17852,4.220451 1.96068,0.232618 3.82174,0.3656 4.12087,0.315666 2.99086,-0.54834 -6.91239,-4.419837 -15.91827,-6.231012 -6.48028,-1.296008 -12.54508,-1.977273 -27.00113,-2.990847 -10.5678,-0.747726 -15.08733,-1.146555 -19.83954,-1.7613 -10.10251,-1.296066 -17.57977,-3.107183 -25.60525,-6.214425 -3.75528,-1.462221 -5.20097,-1.744656 -6.69637,-1.279481 z"
       id="path48-4"
       inkscape:export-xdpi="90.690002"
       inkscape:export-ydpi="90.690002" />
  </g>
</svg>
