<?xml version="1.0" encoding="UTF-8" standalone="no"?>
<!-- Created with Inkscape (http://www.inkscape.org/) -->

<svg
   xmlns:dc="http://purl.org/dc/elements/1.1/"
   xmlns:cc="http://creativecommons.org/ns#"
   xmlns:rdf="http://www.w3.org/1999/02/22-rdf-syntax-ns#"
   xmlns:svg="http://www.w3.org/2000/svg"
   xmlns="http://www.w3.org/2000/svg"
   xmlns:sodipodi="http://sodipodi.sourceforge.net/DTD/sodipodi-0.dtd"
   xmlns:inkscape="http://www.inkscape.org/namespaces/inkscape"
   width="210px"
   height="120px"
   viewBox="0 0 210 120"
   version="1.1"
   id="SVGRoot"
   inkscape:version="0.92.0 r"
   sodipodi:docname="oktober_hat.svg">
  <sodipodi:namedview
     id="base"
     pagecolor="#ffffff"
     bordercolor="#666666"
     borderopacity="1.0"
     inkscape:pageopacity="0.0"
     inkscape:pageshadow="2"
     inkscape:zoom="2.4380952"
     inkscape:cx="104.58984"
     inkscape:cy="92.8125"
     inkscape:document-units="px"
     inkscape:current-layer="layer1"
     showgrid="false"
     inkscape:window-width="2560"
     inkscape:window-height="1016"
     inkscape:window-x="0"
     inkscape:window-y="27"
     inkscape:window-maximized="1" />
  <defs
     id="defs6056" />
  <metadata
     id="metadata6059">
    <rdf:RDF>
      <cc:Work
         rdf:about="">
        <dc:format>image/svg+xml</dc:format>
        <dc:type
           rdf:resource="http://purl.org/dc/dcmitype/StillImage" />
        <dc:title></dc:title>
      </cc:Work>
    </rdf:RDF>
  </metadata>
  <g
     id="layer1"
     inkscape:groupmode="layer"
     inkscape:label="Layer 1">
    <path
       style="fill:#de1921;fill-opacity:1;stroke-width:0.03389154"
       inkscape:connector-curvature="0"
       d="m 43.730338,10.401366 c -3.456938,0.440591 -7.523922,1.525119 -11.455342,3.08413 -1.864035,0.711722 -3.592503,1.457339 -3.795852,1.592906 -0.271132,0.169457 1.220096,0.94896 4.066986,2.067381 17.013555,6.846094 32.501992,16.471293 43.211719,26.943786 l 3.829752,3.761958 0.677817,-0.847285 c 1.389555,-1.796258 2.948571,-5.456545 3.355263,-7.862843 0.610056,-3.456939 0.06777,-6.676636 -1.694565,-10.303032 -2.914677,-6.066585 -7.286688,-9.523524 -13.183815,-10.47249 l -1.491229,-0.237236 1.08453,1.796251 c 3.829745,6.405502 5.897125,12.336521 5.727673,16.47129 l -0.101673,2.304628 -1.152316,-3.2197 C 69.657372,26.533742 65.759845,18.060854 63.489111,15.078402 60.84557,11.621461 51.559288,9.418512 43.730338,10.401366 Z"
       id="path10" />
    <path
       style="fill:#de1921;fill-opacity:1;stroke-width:0.03389154"
       inkscape:connector-curvature="0"
       d="m 31.834407,21.348337 c 2.677431,4.744816 6.744416,12.912678 7.185007,14.370013 0.338915,1.084528 2.202952,1.253986 9.42185,0.813397 3.423047,-0.203352 6.8122,-0.372802 7.557813,-0.338916 h 1.355664 l -1.525118,0.474482 c -2.880784,0.915074 -7.591707,1.525122 -11.590912,1.525122 -2.202948,0 -3.999201,0.101679 -3.999201,0.271128 0,0.406706 1.694578,2.779111 3.863636,5.456546 6.507177,7.896729 17.860844,14.47169 29.926235,17.284692 3.660291,0.847284 9.455733,1.728463 11.590911,1.728463 2.440188,0 1.220094,0.576154 -2.643543,1.186202 -2.507967,0.440598 -4.609242,0.542268 -7.45614,0.440598 -4.982057,-0.237247 -7.422247,-1.016752 -14.844497,-4.846498 l -5.524322,-2.812992 1.626795,2.033487 c 4.16866,5.354864 11.963716,10.879187 19.487638,13.861647 0.982854,0.406696 3.287475,1.050638 5.15151,1.491226 3.321387,0.745614 3.355263,0.779507 2.033496,1.016744 -3.118023,0.610047 -10.811401,-0.847285 -18.945371,-3.5925 -2.202952,-0.745613 -4.066986,-1.287882 -4.134771,-1.220096 -0.27113,0.27113 4.168662,4.100875 6.066587,5.253186 5.45654,3.287484 11.285883,4.846497 18.267543,4.948168 2.372409,0 4.033098,0.135566 3.728079,0.271132 -0.305037,0.135564 -2.77911,0.237244 -5.490432,0.237244 -5.185413,0.03392 -9.896339,-0.677834 -12.234854,-1.796258 -0.847288,-0.440589 -0.305025,0.237246 2.067384,2.474088 3.728069,3.524719 3.931415,3.355262 -2.880782,2.575752 -2.406299,-0.271128 -4.541466,-0.508366 -4.744814,-0.508366 -0.169458,0 2.202948,1.69457 5.287081,3.761959 l 5.659883,3.72808 6.0327,0.982848 c 3.355263,0.542269 9.794664,1.457341 14.370008,2.033489 4.57537,0.542262 8.77792,1.084539 9.38797,1.152309 0.88118,0.135567 1.05063,0.06777 0.88118,-0.406701 C 106.26024,93.639007 96.94008,75.100334 94.80491,71.406153 85.688071,55.54491 76.87627,45.072419 65.420928,36.531747 55.694055,29.278958 42.035763,21.65336 30.715986,17.179677 L 29.156975,16.56963 Z"
       id="path14" />
    <path
       style="fill:#427331;fill-opacity:1;stroke-width:0.03389154"
       inkscape:connector-curvature="0"
       d="m 80.265418,22.839564 c 1.694592,2.304625 2.236851,2.846889 3.219696,3.151913 1.084536,0.372807 16.234056,15.352876 18.267556,18.131974 0.57616,0.745624 1.52513,1.897932 2.16906,2.541874 1.86403,1.965708 5.99879,8.405103 7.79504,12.200957 3.15193,6.676632 3.93144,11.862037 3.62642,23.724079 -0.10168,4.575357 -0.30503,9.015149 -0.4067,9.896343 l -0.20335,1.558994 1.49123,0.203353 c 0.77951,0.101672 6.64275,0.745615 12.98047,1.389556 6.33771,0.643941 15.1834,1.660689 19.65708,2.202957 7.86285,0.982856 21.96173,3.185806 23.04625,3.592496 0.37282,0.16946 0.27114,-0.3728 -0.47448,-2.03349 -3.1858,-7.049434 -4.88037,-15.454542 -6.47329,-31.891948 -1.99959,-20.707731 -3.35525,-24.435805 -10.33692,-28.536681 -5.82933,-3.423048 -12.84488,-5.01595 -32.02751,-7.218901 -10.64195,-1.220096 -14.26834,-1.762359 -18.80982,-2.880782 -2.60963,-0.610046 -19.28427,-5.253189 -23.351271,-6.473284 -0.576153,-0.203348 -0.576153,-0.135566 -0.169461,0.44059 z"
       id="path18" />
    <path
       style="fill:#de1921;fill-opacity:1;stroke-width:0.03389154"
       inkscape:connector-curvature="0"
       d="m 83.891824,30.092355 c 0.372807,1.55901 0.542268,3.863636 0.542268,8.10008 0.03384,6.574961 -0.40671,8.879585 -2.033505,10.811399 l -0.881172,1.050647 1.66068,1.965708 c 6.879996,7.998401 14.946185,20.978862 21.351695,34.298244 1.9318,3.999202 3.79584,7.828952 4.10087,8.472887 0.50835,1.016748 0.74562,1.186209 1.76234,1.186209 h 1.18622 l 0.4067,-2.711325 c 1.6268,-11.150319 1.25398,-22.402319 -0.94896,-29.316189 -0.74563,-2.33852 -4.27034,-9.489633 -4.67704,-9.489633 -0.13557,0 -0.67783,1.796251 -1.18621,3.96531 -0.54225,2.202946 -1.11841,4.236441 -1.28787,4.507572 -0.23725,0.406704 -0.27113,0.338916 -0.13558,-0.16946 0.10167,-0.372802 0.57617,-2.711321 1.05065,-5.151511 l 0.88118,-4.507572 -1.59291,-2.236848 c -1.96571,-2.745215 -1.69457,-3.253584 -3.35525,6.30383 -0.67784,3.795852 -1.28788,6.981656 -1.35566,7.083337 -0.33893,0.305024 -0.10169,-5.083736 0.47448,-11.489237 l 0.61004,-6.608853 -1.55901,-1.830144 C 97.04174,42.089967 88.128259,32.634221 85.383052,29.922897 l -2.033487,-1.965711 z"
       id="path26" />
    <path
       style="fill:#427331;fill-opacity:1;stroke-width:0.03389154"
       inkscape:connector-curvature="0"
       d="m 41.459606,46.631432 c -0.101676,0.305024 -0.643939,2.813002 -1.220096,5.625996 -1.864035,8.913479 -3.389156,15.454547 -4.778708,20.368821 -0.711722,2.609651 -1.321771,4.914276 -1.321771,5.11762 0,0.745614 16.030702,5.727678 25.418659,7.896729 2.507976,0.576164 4.880385,1.152316 5.25319,1.253988 0.440592,0.135566 0.237242,-0.203342 -0.610047,-0.982848 -1.592904,-1.525119 -1.72847,-3.084134 -0.372806,-4.473688 0.711722,-0.71172 1.220095,-0.88118 2.507973,-0.88118 1.559012,0 1.626793,-0.0339 1.253988,-0.779505 -0.169458,-0.406697 -1.355662,-1.389554 -2.575757,-2.16906 -4.744818,-3.016348 -7.422249,-6.134373 -6.947767,-8.066187 0.271131,-1.152317 1.694577,-2.202955 2.982455,-2.202955 l 1.050637,-0.03391 -1.592901,-1.35566 C 58.710403,64.42447 55.965187,61.1031 53.762235,57.781731 52.779383,56.358283 51.457613,54.968729 50.068058,53.918091 48.847964,53.00302 46.475553,50.867853 44.747085,49.173274 42.442461,46.86865 41.56128,46.224708 41.459606,46.631411 Z"
       id="path32" />
    <path
       style="fill:#427331;fill-opacity:1;stroke-width:0.03389154"
       inkscape:connector-curvature="0"
       d="m 12.007852,78.625048 c -4.609251,1.45734 -6.439393,6.50718 -5.693779,15.691797 0.643939,7.557805 1.592901,10.336905 4.100877,11.794245 1.152312,0.71173 1.762359,0.71173 27.621609,0.94898 66.427421,0.57614 111.842121,3.01634 159.459751,8.60842 3.99919,0.4745 7.79505,0.74564 8.40509,0.64396 6.10048,-1.11842 -14.09889,-9.01515 -32.4681,-12.70933 -13.2177,-2.64354 -25.58812,-4.03309 -55.07377,-6.100478 C 96.80449,95.977529 87.586009,95.164127 77.893009,93.910134 57.286958,91.266608 42.035763,87.57242 25.666146,81.234698 18.006657,78.252246 15.058091,77.676091 12.007852,78.625048 Z"
       id="path48" />
  </g>
</svg>
