<?xml version="1.0" encoding="UTF-8" standalone="no"?>
<!-- Created with Inkscape (http://www.inkscape.org/) -->

<svg
   xmlns:dc="http://purl.org/dc/elements/1.1/"
   xmlns:cc="http://creativecommons.org/ns#"
   xmlns:rdf="http://www.w3.org/1999/02/22-rdf-syntax-ns#"
   xmlns:svg="http://www.w3.org/2000/svg"
   xmlns="http://www.w3.org/2000/svg"
   xmlns:sodipodi="http://sodipodi.sourceforge.net/DTD/sodipodi-0.dtd"
   xmlns:inkscape="http://www.inkscape.org/namespaces/inkscape"
   width="800px"
   height="400px"
   viewBox="0 0 800 400"
   version="1.1"
   id="SVGRoot"
   inkscape:version="0.92.0 r"
   sodipodi:docname="flisol_logo.svg">
  <sodipodi:namedview
     id="base"
     pagecolor="#ffffff"
     bordercolor="#666666"
     borderopacity="1.0"
     inkscape:pageopacity="0.0"
     inkscape:pageshadow="2"
     inkscape:zoom="0.98994949"
     inkscape:cx="-157.77506"
     inkscape:cy="234.12384"
     inkscape:document-units="px"
     inkscape:current-layer="layer1"
     showgrid="false"
     inkscape:window-width="2560"
     inkscape:window-height="1016"
     inkscape:window-x="0"
     inkscape:window-y="27"
     inkscape:window-maximized="1" />
  <defs
     id="defs1330" />
  <metadata
     id="metadata1333">
    <rdf:RDF>
      <cc:Work
         rdf:about="">
        <dc:format>image/svg+xml</dc:format>
        <dc:type
           rdf:resource="http://purl.org/dc/dcmitype/StillImage" />
        <dc:title></dc:title>
      </cc:Work>
    </rdf:RDF>
  </metadata>
  <g
     id="layer1"
     inkscape:groupmode="layer"
     inkscape:label="Layer 1">
    <g
       id="g6375"
       transform="matrix(3.8077676,0,0,3.8073782,-1207.92,1247.2276)">
      <path
         style="color:#000000;font-style:normal;font-variant:normal;font-weight:normal;font-stretch:normal;font-size:medium;line-height:normal;font-family:sans-serif;text-indent:0;text-align:start;text-decoration:none;text-decoration-line:none;text-decoration-style:solid;text-decoration-color:#000000;letter-spacing:normal;word-spacing:normal;text-transform:none;writing-mode:lr-tb;direction:ltr;baseline-shift:baseline;text-anchor:start;white-space:normal;clip-rule:nonzero;display:inline;overflow:visible;visibility:visible;opacity:1;isolation:auto;mix-blend-mode:normal;color-interpolation:sRGB;color-interpolation-filters:linearRGB;solid-color:#000000;solid-opacity:1;fill:#ff8e2a;fill-opacity:1;fill-rule:nonzero;stroke:none;stroke-width:7.61514568;stroke-linecap:round;stroke-linejoin:round;stroke-miterlimit:4;stroke-dasharray:none;stroke-dashoffset:0;stroke-opacity:1;color-rendering:auto;image-rendering:auto;shape-rendering:auto;text-rendering:auto;enable-background:accumulate"
         d="m 530.74023,26.802734 c -7.97373,0.07348 -14.26293,4.967035 -18.57226,11.369141 -0.29663,-0.0076 -0.58171,-0.120233 -0.87891,-0.117187 h -0.0117 c -10.633,0.09823 -20.05453,7.410639 -22.80664,17.703124 h 0.0117 c -0.31833,1.187522 -0.0849,2.358539 -0.21094,3.550782 l -8.85742,-15.376953 c -8.68144,-15.06492 -28.36838,-20.354506 -43.40625,-11.66211 l -27.5332,15.929688 C 393.44695,56.90102 388.17482,76.62887 396.84766,91.695312 l 7.9414,13.791018 c 1.07223,1.86222 2.74016,3.08677 4.11914,4.64258 -9.13015,-0.20636 -17.68664,3.31977 -23.83984,9.85156 1.99615,-4.14742 3.32153,-8.63891 3.32031,-13.49609 0.004,-17.407757 -14.41933,-31.861729 -31.79101,-31.857427 h -47.67774 c -20.14355,0 -37.40918,10.155696 -49.08398,24.957031 -1.57139,-6.741153 -4.966,-12.601789 -10.08985,-16.986328 6.8651,-5.874556 11.4985,-14.275422 11.4961,-23.888672 0.004,-17.399033 -14.40458,-31.850808 -31.76758,-31.859375 h -0.0117 c -17.37107,-0.0038 -31.79719,14.451623 -31.79297,31.859375 -0.003,9.612298 4.63447,18.014306 11.49805,23.888672 -6.85726,5.86896 -11.47874,14.261454 -11.48438,23.863284 -0.0114,-17.397094 -14.4292,-31.838289 -31.79297,-31.833987 -0.002,-17.393741 -14.41048,-31.839128 -31.76953,-31.847656 h -0.082 -0.082 c -0.51294,0.0038 -1.02489,0.05348 -1.53711,0.08203 -43.019433,0.9124 -77.743997,36.422648 -77.779295,79.541013 h -0.01172 c -17.363001,0.008 -31.773796,14.46035 -31.769531,31.85938 -0.0038,17.39911 14.406492,31.84885 31.769531,31.85742 h 0.01172 v 63.69336 c -0.0037,17.40783 14.419294,31.86368 31.791016,31.85938 h 0.01172 c 17.363079,-0.008 31.773829,-14.46027 31.769529,-31.85938 v -63.69336 c 5.88544,0.001 11.12239,-2.10231 15.88477,-4.97266 v 68.66602 c -0.002,43.79163 35.76787,79.63747 79.46875,79.63477 h 47.67773 c 17.37176,0.004 31.79536,-14.45155 31.79102,-31.85938 0.004,-17.40775 -14.41934,-31.86172 -31.79102,-31.85742 l 15.89453,0.0117 h 79.47071 0.0117 c 9.37747,-0.019 18.27449,-2.6165 26.61719,-6.53711 l 10.48828,18.19922 c 8.68377,15.0589 28.37301,20.33935 43.40821,11.64843 v 0.0117 l 13.77148,-7.9707 h 0.0117 c 1.84996,-1.07121 3.06488,-2.73733 4.61133,-4.11328 -0.3111,14.3111 8.59268,27.81465 22.91015,31.6582 v -0.0117 l 15.34571,4.12696 c 10.29395,2.77066 20.784,-2.14123 26.18554,-10.86329 10.23121,-0.32515 19.71552,-6.97418 22.47657,-17.28124 0.31604,-1.17964 0.0841,-2.34291 0.21093,-3.52735 l 8.84571,15.36524 v 0.0117 c 8.68795,15.06694 28.38254,20.34261 43.41797,11.63868 l 27.52343,-15.91797 c 2.60078,-1.50373 4.49072,-3.68893 6.48633,-5.77149 13.38118,25.19335 39.02624,43.03537 69.3457,43.03907 h 47.67774 c 17.37168,0.004 31.79535,-14.45155 31.79101,-31.85938 0.004,-17.40775 -14.41933,-31.86169 -31.79101,-31.85742 h -47.67774 c -8.96367,-10e-4 -15.88358,-6.93568 -15.88476,-15.91797 V 106.48438 c 0.004,-17.407757 -14.42129,-31.863682 -31.79297,-31.85938 -2.07093,4.19e-4 -3.91288,0.959224 -5.91211,1.353516 L 637.20312,62.988281 C 628.52119,47.909769 608.81602,42.618203 593.77344,51.326172 l -13.75,7.958984 c -1.85351,1.071625 -3.07183,2.735848 -4.6211,4.113282 C 575.71877,49.083 566.81163,35.573016 552.49023,31.728516 h -0.0117 L 537.1211,27.613281 c -2.07713,-0.557362 -4.21897,-0.829279 -6.36914,-0.810547 z m 0.15039,15.925782 a 7.9461507,7.9626506 0 0 1 2.12891,0.269531 l 15.34961,4.121094 A 15.892301,15.925302 0 0 1 559.60938,66.625 l -8.65821,32.369141 a 79.461511,79.626514 0 0 1 33.32813,31.378909 79.461511,79.626514 0 0 1 0,0.004 l 41.29101,-23.88867 -15.89062,-27.583983 -13.76367,7.962891 3.97265,6.896484 a 7.9461507,7.9626506 0 0 1 -2.9082,10.876948 7.9461507,7.9626506 0 0 1 -10.85547,-2.91406 l -3.97266,-6.896482 a 15.892301,15.925302 0 0 1 5.81641,-21.757812 l 13.76367,-7.960938 a 15.892301,15.925302 0 0 1 21.70899,5.832031 l 14.75,25.597657 a 15.892301,15.925302 0 0 1 12.41406,-5.980469 15.892301,15.925302 0 0 1 15.89062,15.923833 V 249.8125 a 31.784603,31.850603 0 0 0 31.78516,31.85156 h 47.67773 a 15.892301,15.925302 0 0 1 15.89258,15.92383 15.892301,15.925302 0 0 1 -15.89258,15.92578 H 698.28125 A 63.569206,63.701207 0 0 1 634.71289,249.8125 v -40.08984 a 15.892301,15.925302 0 0 1 -15.90234,4.70312 L 586.50781,205.75 a 79.461511,79.626514 0 0 1 -31.3164,33.39648 l 23.83789,41.375 27.52734,-15.92578 -7.94726,-13.79101 -6.88086,3.98242 a 7.9461507,7.9626506 0 0 1 -10.85352,-2.91602 7.9461507,7.9626506 0 0 1 2.9082,-10.87695 l 6.88086,-3.98047 a 15.892301,15.925302 0 0 1 21.70899,5.82813 l 7.94531,13.79297 a 15.892301,15.925302 0 0 1 -5.81641,21.7539 l -27.52539,15.92383 a 15.892301,15.925302 0 0 1 -21.70898,-5.82812 L 540.625,245.71289 a 79.461511,79.626514 0 0 1 -45.71484,1.3418 l -8.24219,30.8164 15.34961,4.1211 a 7.9461507,7.9626506 0 0 1 5.61914,9.75586 7.9461507,7.9626506 0 0 1 -9.73242,5.6289 l -15.34766,-4.12109 A 15.892301,15.925302 0 0 1 471.31641,273.75 l 8.65625,-32.36914 A 79.461511,79.626514 0 0 1 446.64648,210 l -41.28906,23.88672 15.89258,27.58398 13.76172,-7.96289 -3.97266,-6.89648 a 7.9461507,7.9626506 0 0 1 2.90821,-10.87695 7.9461507,7.9626506 0 0 1 10.85546,2.91601 l 3.97266,6.89453 a 15.892301,15.925302 0 0 1 -5.81641,21.75391 l -13.76367,7.96289 a 15.892301,15.925302 0 0 1 -21.70898,-5.82813 l -15.89258,-27.58398 a 15.892301,15.925302 0 0 1 -1.92773,-5.4707 47.676906,47.775907 0 0 1 -33.06836,13.43359 h -79.46289 a 15.892301,15.925302 0 0 1 -15.89258,-15.92578 15.892301,15.925302 0 0 1 15.89258,-15.92383 h 79.46289 a 15.892363,15.925363 0 0 0 15.89257,-15.92578 15.892363,15.925363 0 0 0 -15.89257,-15.92578 h -47.67774 a 47.676906,47.775907 0 0 1 -47.67773,-47.77539 47.676906,47.775907 0 0 1 47.67773,-47.775393 h 47.67774 a 15.892301,15.925302 0 0 1 15.89257,15.923833 15.892301,15.925302 0 0 1 -15.89257,15.92578 h -47.67774 a 15.892363,15.925363 0 0 0 -15.89258,15.92578 15.892363,15.925363 0 0 0 15.89258,15.92578 h 47.67774 a 47.676906,47.775907 0 0 1 47.67578,47.77539 47.676906,47.775907 0 0 1 -2.6875,15.64258 l 38.50781,-22.27735 a 79.461511,79.626514 0 0 1 -1.33789,-45.81054 l -30.75391,-8.25782 -4.11328,15.38086 h -0.004 a 7.9461507,7.9626506 0 0 1 -9.73047,5.63282 7.9461507,7.9626506 0 0 1 -5.61719,-9.75391 l 4.11328,-15.38086 a 15.892301,15.925302 0 0 1 19.46484,-11.26367 l 32.30274,8.67578 a 79.461511,79.626514 0 0 1 31.3125,-33.39648 79.461511,79.626514 0 0 0 0.002,0 l -23.83789,-41.376958 -27.52539,15.923829 7.94531,13.792968 6.88282,-3.982421 A 7.9461507,7.9626506 0 0 1 450.05078,88.5 a 7.9461507,7.9626506 0 0 1 -2.9082,10.880859 l -6.88086,3.980471 a 15.892301,15.925302 0 0 1 -21.70899,-5.832033 l -7.94726,-13.791016 a 15.892301,15.925302 0 0 1 5.81641,-21.753906 l 27.52734,-15.925781 a 15.892301,15.925302 0 0 1 21.70898,5.830078 l 24.64453,42.773437 a 79.461511,79.626514 0 0 1 45.71289,-1.339843 l 8.24024,-30.81836 -15.35156,-4.121094 a 7.9461507,7.9626506 0 0 1 -5.61719,-9.753906 7.9461507,7.9626506 0 0 1 7.60351,-5.90039 z M 229.45898,42.78125 A 15.892301,15.925302 0 0 1 245.35156,58.707031 15.892301,15.925302 0 0 1 229.45898,74.632812 15.892301,15.925302 0 0 1 213.56641,58.707031 15.892301,15.925302 0 0 1 229.45898,42.78125 Z m 281.9668,11.205078 a 7.9461507,7.9626506 0 0 1 2.12891,0.269531 7.9461507,7.9626506 0 0 1 5.61914,9.753907 7.9461507,7.9626506 0 0 1 -9.73047,5.630859 7.9461507,7.9626506 0 0 1 -5.61914,-9.751953 7.9461507,7.9626506 0 0 1 7.60156,-5.902344 z m -377.32031,4.720703 v 0.002 a 15.892301,15.925302 0 0 1 15.89062,15.925782 15.892301,15.925302 0 0 1 -15.89062,15.925781 31.784603,31.850603 0 0 0 -31.78516,31.849616 v 15.92578 h 15.89258 a 15.892301,15.925302 0 0 1 15.89258,15.92578 15.892301,15.925302 0 0 1 -15.89258,15.92383 h -15.89258 v 79.6269 A 15.892301,15.925302 0 0 1 86.427734,265.73828 15.892301,15.925302 0 0 1 70.535156,249.8125 V 170.18555 H 54.642578 A 15.892301,15.925302 0 0 1 38.75,154.26172 15.892301,15.925302 0 0 1 54.642578,138.33594 h 15.892578 v -15.92578 a 63.569206,63.701207 0 0 1 62.228514,-63.634769 15.892301,15.925302 0 0 1 1.3418,-0.06836 z m 388.56055,14.783203 a 7.9461507,7.9626506 0 0 1 2.125,0.271485 7.9461507,7.9626506 0 0 1 5.62109,9.751953 7.9461507,7.9626506 0 0 1 -9.73242,5.632812 7.9461507,7.9626506 0 0 1 -5.61914,-9.755859 7.9461507,7.9626506 0 0 1 7.60547,-5.900391 z m -356.77735,17.06836 v 0.002 a 15.892301,15.925302 0 0 1 15.89258,15.923836 V 249.8125 a 31.784603,31.850603 0 0 0 31.78516,31.85156 h 47.67578 a 15.892301,15.925302 0 0 1 15.89258,15.92383 15.892301,15.925302 0 0 1 -15.89258,15.92383 H 213.56641 A 63.569206,63.701207 0 0 1 149.99609,249.81055 V 106.48242 a 15.892301,15.925302 0 0 1 15.89258,-15.923826 z m 63.57031,0 a 15.892301,15.925302 0 0 1 15.89258,15.923826 v 127.40235 a 15.892301,15.925302 0 0 1 -15.89258,15.92578 15.892301,15.925302 0 0 1 -15.89257,-15.92578 V 106.48242 a 15.892301,15.925302 0 0 1 15.89257,-15.923826 z m 249.69141,15.333986 v 0.002 a 7.9461507,7.9626506 0 0 0 -3.78711,1.0625 7.9461507,7.9626506 0 0 0 -2.9082,10.87695 l 7.94726,13.79297 a 7.9461507,7.9626506 0 0 0 10.85352,2.91407 l 3.97266,6.89843 -20.64649,11.94141 a 7.9461507,7.9626506 0 0 0 -2.9082,10.87891 l 11.91797,20.6875 a 7.9461507,7.9626506 0 0 0 10.85547,2.91601 l 6.88476,-3.98242 27.80859,48.27148 a 7.9461507,7.9626506 0 0 0 10.85743,2.91407 7.9461507,7.9626506 0 0 0 2.9082,-10.87696 l 13.76367,-7.96289 a 7.9461507,7.9626506 0 0 0 2.9082,-10.87695 l -7.94726,-13.79297 13.76367,-7.96094 a 7.9461507,7.9626506 0 0 0 2.9082,-10.8789 l -15.89257,-27.58203 a 7.9461507,7.9626506 0 0 0 -10.85352,-2.91407 l -20.64453,11.94336 a 7.9461507,7.9626506 0 0 0 -2.9082,10.87696 7.9461507,7.9626506 0 0 0 10.85351,2.91406 l 13.76367,-7.96289 7.94532,13.79297 -13.76172,7.96289 a 7.9461507,7.9626506 0 0 0 -2.91016,10.87695 l 7.94727,13.79102 -6.88086,3.98046 -23.83985,-41.37304 a 7.9461507,7.9626506 0 0 0 -10.85351,-2.91602 l -6.88477,3.98242 -3.9707,-6.89648 20.64453,-11.94336 a 7.9461507,7.9626506 0 0 0 2.9082,-10.87695 l -11.91796,-20.69141 a 7.9461507,7.9626506 0 0 0 -10.85547,-2.91406 l -3.97266,-6.89649 a 7.9461507,7.9626506 0 0 0 -6.50977,-3.9707 7.9461507,7.9626506 0 0 0 -0.55859,-0.008 z m 155.5625,13.61133 a 15.892301,15.925302 0 0 1 -1.19531,0.77343 l -42.68555,24.69727 a 79.461511,79.626514 0 0 1 1.33789,45.80664 l 30.75391,8.25781 4.11328,-15.38281 a 7.9461507,7.9626506 0 0 1 7.67578,-5.89258 z m -207.86914,35.42968 a 7.9461507,7.9626506 0 0 1 2.125,0.27149 7.9461507,7.9626506 0 0 1 5.62109,9.7539 7.9461507,7.9626506 0 0 1 -9.73437,5.62891 7.9461507,7.9626506 0 0 1 -5.61719,-9.75391 7.9461507,7.9626506 0 0 1 7.60547,-5.90039 z M 623.4043,158.25 a 7.9461507,7.9626506 0 0 1 2.12695,0.27344 7.9461507,7.9626506 0 0 1 5.61719,9.75195 7.9461507,7.9626506 0 0 1 -9.73047,5.62891 7.9461507,7.9626506 0 0 1 -5.61719,-9.75196 7.9461507,7.9626506 0 0 1 7.60352,-5.90234 z m -216.02735,7.94727 a 7.9461507,7.9626506 0 0 1 2.13086,0.26953 7.9461507,7.9626506 0 0 1 5.61719,9.75195 7.9461507,7.9626506 0 0 1 -9.73047,5.62891 7.9461507,7.9626506 0 0 1 -5.62109,-9.75 7.9461507,7.9626506 0 0 1 7.60351,-5.90039 z m 196.5625,3.31445 a 7.9461507,7.9626506 0 0 1 2.12696,0.27148 7.9461507,7.9626506 0 0 1 5.62109,9.75196 7.9461507,7.9626506 0 0 1 -9.73438,5.63281 7.9461507,7.9626506 0 0 1 -5.61914,-9.75586 7.9461507,7.9626506 0 0 1 7.60547,-5.90039 z m -95.82226,81.44336 a 7.9461507,7.9626506 0 0 1 2.1289,0.27148 7.9461507,7.9626506 0 0 1 5.61914,9.75391 7.9461507,7.9626506 0 0 1 -9.73437,5.62891 7.9461507,7.9626506 0 0 1 -5.61914,-9.75391 7.9461507,7.9626506 0 0 1 7.60547,-5.90039 z m 11.23633,19.50586 a 7.9461507,7.9626506 0 0 1 2.1289,0.27148 7.9461507,7.9626506 0 0 1 5.61914,9.75 7.9461507,7.9626506 0 0 1 -9.73242,5.63086 7.9461507,7.9626506 0 0 1 -5.61719,-9.75195 7.9461507,7.9626506 0 0 1 7.60157,-5.90039 z"
         transform="matrix(0.26262107,0,0,0.26264793,317.22524,-321.80349)"
         id="path5601-3"
         inkscape:connector-curvature="0" />
    </g>
  </g>
</svg>
