<?xml version="1.0" encoding="UTF-8" standalone="no"?>
<!-- Created with Inkscape (http://www.inkscape.org/) -->

<svg
   xmlns:dc="http://purl.org/dc/elements/1.1/"
   xmlns:cc="http://creativecommons.org/ns#"
   xmlns:rdf="http://www.w3.org/1999/02/22-rdf-syntax-ns#"
   xmlns:svg="http://www.w3.org/2000/svg"
   xmlns="http://www.w3.org/2000/svg"
   xmlns:sodipodi="http://sodipodi.sourceforge.net/DTD/sodipodi-0.dtd"
   xmlns:inkscape="http://www.inkscape.org/namespaces/inkscape"
   width="800px"
   height="600px"
   viewBox="0 0 800 600"
   version="1.1"
   id="SVGRoot"
   inkscape:version="0.91 r13725"
   sodipodi:docname="flisol_bnu_logo_slim_hat.svg">
  <sodipodi:namedview
     id="base"
     pagecolor="#ffffff"
     bordercolor="#666666"
     borderopacity="1.0"
     inkscape:pageopacity="0.0"
     inkscape:pageshadow="2"
     inkscape:zoom="0.90509668"
     inkscape:cx="183.82954"
     inkscape:cy="386.72776"
     inkscape:document-units="px"
     inkscape:current-layer="layer1"
     showgrid="false"
     inkscape:window-width="1920"
     inkscape:window-height="1014"
     inkscape:window-x="0"
     inkscape:window-y="27"
     inkscape:window-maximized="0" />
  <defs
     id="defs492" />
  <metadata
     id="metadata495">
    <rdf:RDF>
      <cc:Work
         rdf:about="">
        <dc:format>image/svg+xml</dc:format>
        <dc:type
           rdf:resource="http://purl.org/dc/dcmitype/StillImage" />
        <dc:title></dc:title>
      </cc:Work>
    </rdf:RDF>
  </metadata>
  <g
     id="layer1"
     inkscape:groupmode="layer"
     inkscape:label="Layer 1">
    <g
       id="g9132"
       transform="matrix(2.5259627,0,0,1.9462289,-104.53238,23.171055)"
       inkscape:export-xdpi="90.690002"
       inkscape:export-ydpi="90.690002">
      <g
         style="stroke:#ff8e2a;stroke-opacity:1"
         id="g7145"
         transform="matrix(0.46551856,0,0,0.46551856,403.9833,-386.15297)">
        <g
           style="stroke:#ff8e2a;stroke-opacity:1"
           id="g7147"
           transform="translate(-1.9999988,247.45081)">
          <path
             sodipodi:nodetypes="cssc"
             inkscape:connector-curvature="0"
             id="path7149"
             d="m -684.31429,924.90515 v -82.48626 c 0,-12.61496 10.15573,-22.77069 22.77069,-22.77069 h 14.23292"
             style="color:#000000;display:inline;overflow:visible;visibility:visible;fill:none;stroke:#ff8e2a;stroke-width:16;stroke-linecap:round;stroke-linejoin:round;stroke-miterlimit:4;stroke-dashoffset:0;stroke-opacity:1;marker:none;enable-background:accumulate" />
          <path
             sodipodi:nodetypes="cc"
             inkscape:connector-curvature="0"
             id="path7151"
             d="m -692.04297,869.41923 h 39.41039"
             style="fill:none;stroke:#ff8e2a;stroke-width:16;stroke-linecap:round;stroke-linejoin:round;stroke-opacity:1" />
        </g>
        <path
           style="color:#000000;display:inline;overflow:visible;visibility:visible;fill:none;stroke:#ff8e2a;stroke-width:16;stroke-linecap:round;stroke-linejoin:round;stroke-miterlimit:4;stroke-dasharray:none;stroke-dashoffset:0;stroke-opacity:1;marker:none;enable-background:accumulate"
           d="M -572.936,1066.7216 V 1172.356"
           id="path7153"
           inkscape:connector-curvature="0"
           sodipodi:nodetypes="cc" />
        <path
           sodipodi:nodetypes="csssccsssc"
           inkscape:connector-curvature="0"
           id="path7156"
           d="m -545.50603,1172.356 h 25.07235 c 13.24816,0 23.91365,-10.6102 23.91365,-23.7897 v -4.7579 c 0,-13.1795 -10.66575,-23.8721 -23.91365,-23.7897 -15.00464,0.093 8.10144,0.1866 -6.90318,0.2799 -13.24816,0 -23.91366,-10.6102 -23.91366,-23.7897 v -4.7579 c 0,-13.1795 10.6655,-23.7897 23.91366,-23.7897 h 25.07235"
           style="color:#000000;display:inline;overflow:visible;visibility:visible;fill:none;stroke:#ff8e2a;stroke-width:16;stroke-linecap:round;stroke-linejoin:round;stroke-miterlimit:4;stroke-dashoffset:0;stroke-opacity:1;marker:none;enable-background:accumulate" />
        <rect
           style="color:#000000;display:inline;overflow:visible;visibility:visible;fill:none;stroke:#ff8e2a;stroke-width:16;stroke-linecap:round;stroke-linejoin:round;stroke-miterlimit:4;stroke-dasharray:none;stroke-dashoffset:0;stroke-opacity:1;marker:none;enable-background:accumulate"
           id="rect7158"
           width="50.704243"
           height="74.238625"
           x="-476.8345"
           y="1098.1173"
           ry="14.828341" />
        <path
           sodipodi:nodetypes="cssc"
           inkscape:connector-curvature="0"
           id="path7160"
           d="m -629.62515,1067.099 v 82.4863 c 0,12.6149 10.15573,22.7707 22.77069,22.7707 h 14.23292"
           style="color:#000000;display:inline;overflow:visible;visibility:visible;fill:none;stroke:#ff8e2a;stroke-width:16;stroke-linecap:round;stroke-linejoin:round;stroke-miterlimit:4;stroke-dashoffset:0;stroke-opacity:1;marker:none;enable-background:accumulate" />
        <path
           style="color:#000000;display:inline;overflow:visible;visibility:visible;fill:none;stroke:#ff8e2a;stroke-width:16;stroke-linecap:round;stroke-linejoin:round;stroke-miterlimit:4;stroke-dashoffset:0;stroke-opacity:1;marker:none;enable-background:accumulate"
           d="m -405.33322,1067.099 v 82.4863 c 0,12.6149 10.15573,22.7707 22.77069,22.7707 h 14.23292"
           id="path7162"
           inkscape:connector-curvature="0"
           sodipodi:nodetypes="cssc" />
      </g>
      <g
         style="fill:#ff8e2a;fill-opacity:1"
         transform="matrix(0.49201676,0,0,0.49201676,377.57693,-127.90781)"
         id="g7164">
        <path
           style="color:#000000;display:inline;overflow:visible;visibility:visible;fill:#ff8e2a;fill-opacity:1;fill-rule:nonzero;stroke:none;stroke-width:2.8269999;stroke-miterlimit:4;stroke-dasharray:none;marker:none;enable-background:accumulate"
           d="m 641.64258,185.00195 c -1.73827,0.012 -3.47505,0.50542 -5.03906,1.55664 l -29.41407,26.02539 c -2.94497,2.42144 -3.66706,5.08807 -0.75,8.15625 11.17334,9.84143 23.5586,17.00977 23.5586,17.00977 2.2071,1.17253 4.46978,0.85863 6.77539,-0.55859 l 14.83984,-11.8418 c 2.51305,-2.27349 1.76485,-4.20202 -0.53125,-5.9668 l -15.9043,-11.76367 -1.54882,1.1875 13.62109,13.81836 -14.16602,11.38672 -20.60351,-16.3086 30.01562,-24.42382 35.06055,29.22656 -33.71094,26.13086 c -12.15947,-9.83385 -28.66168,-15.68355 -46.15039,-16.35938 l -2.06054,-45.76367 c 0,0 -20.88443,-4.63884 -22.30665,2.61719 -1.42218,7.25601 14.92188,4.70703 14.92188,4.70703 l 4.45117,38.41211 c -12.19998,0.23902 -24.09948,3.00393 -34.48047,8.01172 L 520.92969,212.7832 c -1.84951,-1.58362 -4.90683,-2.42821 -7.95899,-2.46679 -3.05215,-0.0386 -6.1,0.72823 -7.93554,2.36718 l -38.84766,31.93164 c -3.25957,2.57079 -3.92519,6.02097 -0.80664,8.77539 l 33.7793,22.66407 c 3.14272,2.26907 6.60381,2.82569 10.58593,0.57812 12.77295,-8.60894 22.07422,-18.15234 22.07422,-18.15234 1.52181,-1.70055 1.11477,-3.44425 -0.72461,-5.2207 l -15.36914,-11.4336 c -2.9507,-1.93628 -5.45368,-1.36094 -7.74414,0.40821 l -15.26562,12.25585 1.53906,1.19336 17.93359,-10.49414 14.7793,10.91407 -21.16602,15.87304 -31.69921,-23.125 37.93164,-27.01367 33.88476,25.95117 c -12.22477,9.45514 -19.4706,22.14005 -20.31054,35.55664 l -60.28516,1.61133 c 0,0 -6.02094,16.09171 3.39648,17.1875 9.41741,1.09578 6.10743,-11.49805 6.10742,-11.49805 l 50.7461,-3.49023 c 0.27661,9.31352 3.6499,18.41104 9.78906,26.40039 l -35.94531,28.96094 c -4.11069,2.85004 -4.38323,9.41755 -0.12891,12.24609 l 41.44336,29.93164 c 3.33657,2.51147 7.81378,3.02391 11.38867,0.6211 l 29.41407,-26.02539 c 2.94497,-2.42144 3.66706,-5.08807 0.75,-8.15625 -11.17334,-9.84143 -23.5586,-17.00977 -23.5586,-17.00977 -2.2071,-1.17253 -4.46978,-0.85863 -6.77539,0.55859 l -14.83984,11.8418 c -2.51305,2.27349 -1.76485,4.20202 0.53125,5.9668 l 15.9043,11.76367 1.54882,-1.1875 -13.61914,-13.81836 14.16406,-11.38672 20.60352,16.3086 -30.01562,24.42382 -35.06055,-29.22656 33.66406,-26.0957 c 12.18585,9.81461 28.7042,15.6378 46.19531,16.28515 l 2.0625,45.80274 c 0,0 20.88444,4.63883 22.30664,-2.61719 1.42219,-7.25601 -14.92187,-4.70703 -14.92187,-4.70703 L 596.02344,339.625 c 12.20041,-0.23817 24.10062,-3.00241 34.48242,-8.00977 l 37.28906,27.47657 c 3.69901,3.16723 12.22344,3.37754 15.89453,0.0996 l 38.84766,-31.93164 c 3.25957,-2.57079 3.92714,-6.02097 0.80859,-8.77539 L 689.56641,295.8203 c -1.57136,-1.13454 -3.22263,-1.84082 -4.97852,-1.98242 -1.75589,-0.1416 -3.61831,0.28051 -5.60937,1.4043 -12.77295,8.60894 -22.07422,18.15234 -22.07422,18.15234 -1.52181,1.70055 -1.11477,3.44425 0.72461,5.2207 l 15.36914,11.4336 c 2.9507,1.93628 5.45368,1.36094 7.74414,-0.40821 l 15.26562,-12.25585 -1.53906,-1.19336 -17.93359,10.49414 -14.7793,-10.91407 21.16602,-15.87304 31.69921,23.125 -37.93164,27.01367 -33.88476,-25.95117 c 12.22477,-9.45514 19.4706,-22.14005 20.31054,-35.55664 l 60.28711,-1.61133 c 0,0 6.01899,-16.09171 -3.39843,-17.1875 -9.41741,-1.09578 -6.10743,11.49805 -6.10743,11.49805 l -50.74218,3.49023 c -0.28145,-9.31235 -3.65876,-18.40778 -9.80078,-26.39453 l 35.95312,-28.9668 c 4.11069,-2.85004 4.38323,-9.41755 0.12891,-12.24609 l -41.44336,-29.93164 c -1.66828,-1.25574 -3.62222,-2.01238 -5.60547,-2.1543 -0.24791,-0.0177 -0.49582,-0.0251 -0.74414,-0.0234 z m -82.28906,60.45117 c 2.95767,-0.0941 6.93519,1.22622 9.3125,1.96094 4.93267,0.79404 5.14709,7.86399 6.3789,12.03711 2.08367,4.80384 7.18492,-2.21496 8.45508,0.62891 -2.12625,3.22776 3.42733,3.31169 3.51953,6.70508 -0.20028,1.68461 2.56972,3.76885 3.34961,4.76172 2.02022,-0.45083 4.95972,-2.54397 5.47461,-3.86719 3.07412,-0.0914 1.33123,2.98831 2.74609,2.99804 1.03456,0.008 1.51007,-2.40576 1.85547,-2.31835 5.67597,1.42532 9.01635,2.03611 14.33789,4.27343 4.91378,4.93809 10.99095,9.3011 18.37891,11.59961 5.54302,0.65588 4.10948,6.18911 1.22266,8.57227 -3.76824,2.68618 -3.15395,7.28862 -5.20508,9.99804 -4.62517,2.48113 -9.29661,7.55552 -11.70703,9.79102 -5.22645,3.70982 -12.10977,6.98242 -15.64258,12.22852 -3.59137,2.62207 -3.23714,6.36762 -4.12891,9.84765 -4.44842,-0.63025 -3.56013,-7.3914 -2.93359,-10.60937 1.40812,-4.53643 1.88716,-9.344 3.86133,-13.69532 3.34063,-6.01462 -0.86614,-12.3434 -5.30274,-17.12304 -2.19246,-3.66033 -9.12037,-6.49445 -5.74414,-11.16211 1.68292,-3.02415 5.5551,-6.94448 2.46875,-10.07617 -4.3348,-0.89825 -5.62986,-5.40984 -9.6543,-6.9336 -4.63506,-0.9278 -10.13347,-1.16622 -13.02734,-4.875 -3.7971,-3.55403 -4.59167,-8.44751 -7.03711,-12.45703 -4.1714,-3.41477 -2.00859,3.66224 -0.80664,5.25781 0.38849,0.70641 0.67065,1.13467 0.9043,1.3711 -2.70884,-1.94425 -3.96035,-5.49878 -3.59375,-8.26758 0.66205,-0.42424 1.53169,-0.61474 2.51758,-0.64649 z m 34.52929,10.05665 c 0.13759,8.8e-4 0.2917,0.0112 0.45508,0.0371 2.10707,-0.0188 7.27337,0.95858 7.20703,2.23632 -0.18423,0.72002 -4.32823,-0.5962 -6.5918,-0.625 -2.40181,-0.0299 -4.41965,1.31014 -5.11523,0.0859 -0.30462,-0.51466 2.92295,-1.50376 3.38867,-1.65234 -0.0265,-0.002 0.24349,-0.0847 0.65625,-0.082 z m 12.49805,4.13476 c 2.26925,-0.0385 -0.54151,1.66072 3.73242,1.76367 0.88697,0.71662 -0.79043,1.03478 -3.29687,1.15039 -1.76621,-0.73637 -3.7188,-0.64042 -3.47071,-1.42578 2.85526,-0.27552 1.44443,-1.46239 3.03516,-1.48828 z m 4.95117,1.73242 c 0.009,-2.6e-4 0.0182,-2.6e-4 0.0273,0 0.20527,5.2e-4 0.4201,0.22661 0.41992,0.38477 1.8e-4,0.15816 -0.21465,0.35983 -0.41992,0.36035 -0.20603,3.1e-4 -0.44647,-0.17719 -0.44629,-0.33594 -6.7e-4,-0.15085 0.251,-0.3984 0.44629,-0.40918 z"
           transform="matrix(0.80462435,0,0,1.0443022,-683.29734,235.76878)"
           id="path7166"
           inkscape:connector-curvature="0"
           sodipodi:nodetypes="cccccccccccccccccccccccccccccccccccccccccccsccccccccccccccccccccccccccccccccscccccccccccccccsccccccccccccccccccccccccccccccccccccccccccccccccccccccccc" />
        <g
           style="fill:#ff8e2a;fill-opacity:1"
           transform="matrix(1.0923337,0.25861982,-0.25861982,1.0923337,160.90403,65.72318)"
           id="g7176">
          <ellipse
             ry="7.0285716"
             rx="4.8000002"
             cy="505.67648"
             cx="-148.45714"
             transform="rotate(-78.17815,-154.51616,551.14681)"
             id="path7180"
             style="color:#000000;display:inline;overflow:visible;visibility:visible;fill:#ff8e2a;fill-opacity:1;fill-rule:nonzero;stroke:none;stroke-width:2.59126377;marker:none;enable-background:accumulate" />
          <ellipse
             ry="7.0285716"
             rx="4.8000002"
             cy="505.67648"
             cx="-148.45714"
             style="color:#000000;display:inline;overflow:visible;visibility:visible;fill:#ff8e2a;fill-opacity:1;fill-rule:nonzero;stroke:none;stroke-width:2.59126377;marker:none;enable-background:accumulate"
             id="path7182"
             transform="rotate(-78.17815,-143.42559,551.99436)" />
          <ellipse
             ry="7.0285716"
             rx="4.8000002"
             cy="505.67648"
             cx="-148.45714"
             style="color:#000000;display:inline;overflow:visible;visibility:visible;fill:#ff8e2a;fill-opacity:1;fill-rule:nonzero;stroke:none;stroke-width:2.59126377;marker:none;enable-background:accumulate"
             id="path7186"
             transform="rotate(101.82185,-164.37813,427.31718)" />
          <ellipse
             ry="7.0285716"
             rx="4.8000002"
             cy="505.67648"
             cx="-148.45714"
             transform="rotate(101.82185,-163.68961,418.30763)"
             id="path7188"
             style="color:#000000;display:inline;overflow:visible;visibility:visible;fill:#ff8e2a;fill-opacity:1;fill-rule:nonzero;stroke:none;stroke-width:2.59126377;marker:none;enable-background:accumulate" />
          <ellipse
             ry="7.0285716"
             rx="4.8000002"
             cy="505.67648"
             cx="-148.45714"
             style="color:#000000;display:inline;overflow:visible;visibility:visible;fill:#ff8e2a;fill-opacity:1;fill-rule:nonzero;stroke:none;stroke-width:2.59126377;marker:none;enable-background:accumulate"
             id="path7192"
             transform="rotate(-168.17815,-159.95766,482.82179)" />
          <ellipse
             ry="7.0285716"
             rx="4.8000002"
             cy="505.67648"
             cx="-148.45714"
             transform="rotate(-168.17815,-154.6066,478.23052)"
             id="path7194"
             style="color:#000000;display:inline;overflow:visible;visibility:visible;fill:#ff8e2a;fill-opacity:1;fill-rule:nonzero;stroke:none;stroke-width:2.59126377;marker:none;enable-background:accumulate" />
          <ellipse
             ry="7.0285716"
             rx="4.8000002"
             cy="505.67648"
             cx="-148.45714"
             transform="rotate(11.82185,-207.07448,-108.79008)"
             id="path7198"
             style="color:#000000;display:inline;overflow:visible;visibility:visible;fill:#ff8e2a;fill-opacity:1;fill-rule:nonzero;stroke:none;stroke-width:2.59126377;marker:none;enable-background:accumulate" />
          <ellipse
             ry="7.0285716"
             rx="4.8000002"
             cy="505.67648"
             cx="-148.45714"
             style="color:#000000;display:inline;overflow:visible;visibility:visible;fill:#ff8e2a;fill-opacity:1;fill-rule:nonzero;stroke:none;stroke-width:2.59126377;marker:none;enable-background:accumulate"
             id="path7200"
             transform="rotate(11.82185,-251.42057,-160.4749)" />
        </g>
      </g>
    </g>
    <path
       style="fill:#de1921;fill-opacity:1;stroke-width:0.01434891"
       inkscape:connector-curvature="0"
       d="m 359.68515,221.78432 c -1.46358,0.18653 -3.18545,0.64571 -4.84991,1.30576 -0.78921,0.30133 -1.521,0.61699 -1.60709,0.67439 -0.11479,0.0717 0.51656,0.40177 1.72187,0.87529 7.20316,2.89847 13.7606,6.97357 18.29486,11.40738 l 1.62142,1.59273 0.28698,-0.35872 c 0.58832,-0.7605 1.24836,-2.31018 1.42055,-3.32896 0.25828,-1.46358 0.0287,-2.82672 -0.71745,-4.36206 -1.23401,-2.56846 -3.08501,-4.03205 -5.58172,-4.43382 l -0.63136,-0.10044 0.45917,0.76049 c 1.62143,2.71194 2.49671,5.22301 2.42496,6.97357 l -0.043,0.97574 -0.48785,-1.36316 c -1.33446,-3.78811 -2.98459,-7.37534 -3.94595,-8.63804 -1.11922,-1.46359 -5.05082,-2.39626 -8.36542,-1.98015 z"
       id="path10"
       inkscape:export-xdpi="90.690002"
       inkscape:export-ydpi="90.690002" />
    <path
       style="fill:#de1921;fill-opacity:1;stroke-width:0.01434891"
       inkscape:connector-curvature="0"
       d="m 354.6487,226.41901 c 1.13356,2.00886 2.85543,5.46694 3.04196,6.08395 0.14348,0.45916 0.93269,0.5309 3.98901,0.34437 1.44924,-0.0861 2.88412,-0.15783 3.1998,-0.14349 h 0.57396 l -0.6457,0.20088 c -1.21967,0.38742 -3.21415,0.64571 -4.90733,0.64571 -0.93268,0 -1.69318,0.043 -1.69318,0.11479 0,0.17219 0.71745,1.17662 1.63578,2.31017 2.75499,3.34331 7.56188,6.12699 12.67009,7.31795 1.54968,0.35871 4.00335,0.73179 4.90732,0.73179 1.03313,0 0.51656,0.24393 -1.11921,0.50221 -1.06182,0.18653 -1.95145,0.22958 -3.15677,0.18653 -2.10929,-0.10044 -3.1424,-0.43046 -6.28482,-2.05189 l -2.33886,-1.19095 0.68875,0.86093 c 1.76491,2.26713 5.06516,4.60601 8.25061,5.8687 0.41612,0.17219 1.39185,0.44482 2.18104,0.63135 1.40619,0.31568 1.42053,0.33003 0.86093,0.43048 -1.3201,0.25828 -4.57729,-0.35873 -8.02104,-1.52099 -0.93268,-0.31568 -1.72186,-0.54526 -1.75057,-0.51656 -0.11478,0.11479 1.76492,1.73622 2.56847,2.22408 2.31016,1.39185 4.77819,2.0519 7.73406,2.09494 1.00442,0 1.7075,0.0574 1.57836,0.11479 -0.12913,0.0573 -1.1766,0.10045 -2.32452,0.10045 -2.19538,0.0144 -4.18988,-0.28698 -5.17995,-0.7605 -0.35872,-0.18653 -0.12914,0.10045 0.87528,1.04747 1.57839,1.49228 1.66449,1.42054 -1.21964,1.09051 -1.0188,-0.11479 -1.92277,-0.21522 -2.00886,-0.21522 -0.0717,0 0.93269,0.71743 2.23842,1.59273 l 2.39628,1.57837 2.55411,0.41612 c 1.42054,0.22959 4.14684,0.61701 6.08392,0.86094 1.93712,0.22957 3.71638,0.45916 3.97466,0.48785 0.37307,0.0573 0.44481,0.0286 0.37307,-0.17218 -0.21523,-0.66005 -4.16118,-8.50889 -5.06516,-10.07292 -3.85987,-6.7153 -7.59058,-11.14911 -12.4405,-14.76504 -4.11815,-3.07067 -9.90075,-6.29917 -14.69329,-8.19323 l -0.66006,-0.25828 z"
       id="path14"
       inkscape:export-xdpi="90.690002"
       inkscape:export-ydpi="90.690002" />
    <path
       style="fill:#427331;fill-opacity:1;stroke-width:0.01434891"
       inkscape:connector-curvature="0"
       d="m 375.15328,227.05036 c 0.71745,0.97573 0.94704,1.20532 1.36316,1.33446 0.45915,0.15783 6.87311,6.50006 7.73405,7.67666 0.24394,0.31569 0.64571,0.80356 0.91834,1.07617 0.78918,0.83224 2.53974,3.55854 3.30023,5.16561 1.33447,2.82675 1.66449,5.02213 1.53535,10.04423 -0.043,1.9371 -0.12914,3.81681 -0.1722,4.18989 l -0.0861,0.66005 0.63137,0.0861 c 0.33002,0.043 2.81237,0.31567 5.49562,0.58831 2.68326,0.27262 6.42832,0.70308 8.32237,0.93268 3.32894,0.41612 9.2981,1.3488 9.75726,1.52098 0.15784,0.0717 0.11478,-0.15785 -0.20089,-0.86094 -1.3488,-2.98457 -2.06625,-6.5431 -2.74065,-13.50232 -0.84658,-8.76719 -1.42054,-10.34556 -4.37641,-12.08179 -2.46801,-1.44923 -5.43823,-2.12364 -13.55971,-3.05631 -4.50556,-0.51656 -6.04089,-0.74615 -7.96365,-1.21966 -1.10487,-0.25828 -8.16452,-2.22408 -9.88639,-2.74064 -0.24394,-0.0861 -0.24394,-0.0574 -0.0717,0.18653 z"
       id="path18"
       inkscape:export-xdpi="90.690002"
       inkscape:export-ydpi="90.690002" />
    <path
       style="fill:#de1921;fill-opacity:1;stroke-width:0.01434891"
       inkscape:connector-curvature="0"
       d="m 376.68862,230.12104 c 0.15783,0.66005 0.22958,1.63577 0.22958,3.42939 0.0143,2.78368 -0.17219,3.75941 -0.86094,4.5773 l -0.37307,0.44482 0.7031,0.83224 c 2.91282,3.38633 6.32787,8.88197 9.03981,14.52109 0.81789,1.69318 1.60708,3.31459 1.73622,3.58723 0.21523,0.43047 0.31567,0.5022 0.74614,0.5022 h 0.50222 l 0.17219,-1.1479 c 0.68875,-4.72079 0.5309,-9.48464 -0.40177,-12.41181 -0.31569,-0.99008 -1.80797,-4.01769 -1.98016,-4.01769 -0.0574,0 -0.28698,0.76048 -0.5022,1.67882 -0.22959,0.93267 -0.47352,1.79361 -0.54527,1.9084 -0.10044,0.1722 -0.11479,0.14349 -0.0574,-0.0717 0.043,-0.15782 0.24395,-1.14791 0.44483,-2.18102 l 0.37307,-1.90841 -0.6744,-0.94703 c -0.83224,-1.16226 -0.71746,-1.3775 -1.42055,2.66889 -0.28698,1.60708 -0.54526,2.95587 -0.57395,2.99893 -0.14349,0.12914 -0.043,-2.15234 0.20088,-4.86429 l 0.25828,-2.79803 -0.66004,-0.77485 c -0.7892,-0.94702 -4.56297,-4.95037 -5.72523,-6.09827 l -0.86093,-0.83225 z"
       id="path26"
       inkscape:export-xdpi="90.690002"
       inkscape:export-ydpi="90.690002" />
    <path
       style="fill:#427331;fill-opacity:1;stroke-width:0.01434891"
       inkscape:connector-curvature="0"
       d="m 358.72378,237.12332 c -0.043,0.12913 -0.27262,1.19095 -0.51656,2.3819 -0.78918,3.77377 -1.43488,6.54311 -2.02319,8.6237 -0.30133,1.10486 -0.55961,2.0806 -0.55961,2.16669 0,0.31567 6.78703,2.42496 10.76168,3.34328 1.06182,0.24394 2.06623,0.48788 2.22409,0.53092 0.18653,0.0574 0.10043,-0.0861 -0.25829,-0.41612 -0.6744,-0.64571 -0.73179,-1.30575 -0.15784,-1.89406 0.30133,-0.30133 0.51656,-0.37306 1.06183,-0.37306 0.66003,0 0.68874,-0.0144 0.5309,-0.33003 -0.0717,-0.17219 -0.57395,-0.58831 -1.09051,-0.91833 -2.00886,-1.27705 -3.14241,-2.59716 -2.94153,-3.41504 0.11479,-0.48787 0.71745,-0.93268 1.2627,-0.93268 l 0.44482,-0.0143 -0.67441,-0.57397 c -0.76048,-0.64569 -1.92274,-2.05188 -2.85542,-3.45807 -0.41611,-0.60266 -0.97572,-1.19097 -1.56403,-1.63578 -0.51656,-0.38743 -1.521,-1.29141 -2.25279,-2.00885 -0.9757,-0.97573 -1.34879,-1.24836 -1.39184,-1.07617 z"
       id="path32"
       inkscape:export-xdpi="90.690002"
       inkscape:export-ydpi="90.690002" />
    <path
       style="fill:#427331;fill-opacity:1;stroke-width:0.01434891"
       inkscape:connector-curvature="0"
       d="m 346.25458,250.66867 c -1.95145,0.61701 -2.72629,2.755 -2.41061,6.64356 0.27263,3.1998 0.6744,4.37641 1.73622,4.99341 0.48786,0.30132 0.74614,0.30132 11.69436,0.40177 28.12387,0.24394 47.3514,1.27706 67.5116,3.64462 1.69318,0.20088 3.30026,0.31568 3.55855,0.27262 2.58279,-0.4735 -5.96915,-3.8168 -13.74626,-5.38083 -5.59608,-1.11921 -10.83343,-1.70752 -23.31699,-2.5828 -9.12591,-0.64571 -13.0288,-0.99008 -17.13258,-1.52098 -8.72415,-1.11922 -15.18115,-2.68324 -22.11167,-5.3665 -3.24286,-1.2627 -4.49122,-1.50663 -5.78262,-1.10487 z"
       id="path48"
       inkscape:export-xdpi="90.690002"
       inkscape:export-ydpi="90.690002" />
  </g>
</svg>
