<?xml version="1.0" encoding="UTF-8" standalone="no"?>
<!-- Created with Inkscape (http://www.inkscape.org/) -->

<svg
   xmlns:dc="http://purl.org/dc/elements/1.1/"
   xmlns:cc="http://creativecommons.org/ns#"
   xmlns:rdf="http://www.w3.org/1999/02/22-rdf-syntax-ns#"
   xmlns:svg="http://www.w3.org/2000/svg"
   xmlns="http://www.w3.org/2000/svg"
   xmlns:sodipodi="http://sodipodi.sourceforge.net/DTD/sodipodi-0.dtd"
   xmlns:inkscape="http://www.inkscape.org/namespaces/inkscape"
   width="800px"
   height="400px"
   viewBox="0 0 800 400"
   version="1.1"
   id="SVGRoot"
   inkscape:version="0.91 r13725"
   sodipodi:docname="flisol_bnu_logo_hat_2017.svg"
   inkscape:export-filename="/run/media/alexandre/f14881f5-2376-4efc-b4df-b1a44a5f12a3/HSBNU/FLISoL/logo/flisol_bnu_logo_novo_2017.svg.png"
   inkscape:export-xdpi="25.416187"
   inkscape:export-ydpi="25.416187">
  <sodipodi:namedview
     id="base"
     pagecolor="#ffffff"
     bordercolor="#666666"
     borderopacity="1.0"
     inkscape:pageopacity="0.0"
     inkscape:pageshadow="2"
     inkscape:zoom="0.98994949"
     inkscape:cx="379.93802"
     inkscape:cy="228.06292"
     inkscape:document-units="px"
     inkscape:current-layer="layer1"
     showgrid="false"
     inkscape:window-width="1920"
     inkscape:window-height="1016"
     inkscape:window-x="1920"
     inkscape:window-y="27"
     inkscape:window-maximized="1" />
  <defs
     id="defs1330" />
  <metadata
     id="metadata1333">
    <rdf:RDF>
      <cc:Work
         rdf:about="">
        <dc:format>image/svg+xml</dc:format>
        <dc:type
           rdf:resource="http://purl.org/dc/dcmitype/StillImage" />
        <dc:title />
      </cc:Work>
    </rdf:RDF>
  </metadata>
  <g
     id="layer1"
     inkscape:groupmode="layer"
     inkscape:label="Layer 1">
    <g
       id="g6375"
       transform="matrix(3.8077676,0,0,3.8073782,-1207.92,1207.2276)">
      <path
         style="color:#000000;font-style:normal;font-variant:normal;font-weight:normal;font-stretch:normal;font-size:medium;line-height:normal;font-family:sans-serif;text-indent:0;text-align:start;text-decoration:none;text-decoration-line:none;text-decoration-style:solid;text-decoration-color:#000000;letter-spacing:normal;word-spacing:normal;text-transform:none;writing-mode:lr-tb;direction:ltr;baseline-shift:baseline;text-anchor:start;white-space:normal;clip-rule:nonzero;display:inline;overflow:visible;visibility:visible;opacity:1;isolation:auto;mix-blend-mode:normal;color-interpolation:sRGB;color-interpolation-filters:linearRGB;solid-color:#000000;solid-opacity:1;fill:#ff8e2a;fill-opacity:1;fill-rule:nonzero;stroke:none;stroke-width:7.61514568;stroke-linecap:round;stroke-linejoin:round;stroke-miterlimit:4;stroke-dasharray:none;stroke-dashoffset:0;stroke-opacity:1;color-rendering:auto;image-rendering:auto;shape-rendering:auto;text-rendering:auto;enable-background:accumulate"
         d="M 530.74023 8.8027344 C 522.7665 8.8762168 516.4773 13.769769 512.16797 20.171875 C 511.87134 20.16426 511.58626 20.051642 511.28906 20.054688 L 511.27734 20.054688 C 500.64434 20.152918 491.22281 27.465327 488.4707 37.757812 L 488.48242 37.757812 C 488.16409 38.945334 488.39752 40.116351 488.27148 41.308594 L 479.41406 25.931641 C 470.73262 10.866721 451.04568 5.5771345 436.00781 14.269531 L 408.47461 30.199219 C 393.44695 38.90102 388.17482 58.62887 396.84766 73.695312 L 404.78906 87.486328 C 405.86129 89.348555 407.52922 90.573097 408.9082 92.128906 C 399.77805 91.922546 391.22156 95.448683 385.06836 101.98047 C 387.06451 97.833054 388.38989 93.341562 388.38867 88.484375 C 388.39248 71.076623 373.96934 56.622651 356.59766 56.626953 L 308.91992 56.626953 C 288.77637 56.626953 271.51074 66.782649 259.83594 81.583984 C 258.26455 74.842831 254.86994 68.982195 249.74609 64.597656 C 256.61119 58.7231 261.24459 50.322234 261.24219 40.708984 C 261.246 23.309951 246.83761 8.858176 229.47461 8.8496094 L 229.46289 8.8496094 C 212.09182 8.845802 197.6657 23.301232 197.66992 40.708984 C 197.66669 50.321282 202.30439 58.72329 209.16797 64.597656 C 202.31071 70.466616 197.68923 78.85911 197.68359 88.460938 C 197.67217 71.063846 183.25439 56.622651 165.89062 56.626953 C 165.88845 39.233212 151.48014 24.787825 134.12109 24.779297 L 134.03906 24.779297 L 133.95703 24.779297 C 133.44409 24.783066 132.93214 24.832773 132.41992 24.861328 C 89.400487 25.773728 54.675923 61.283976 54.640625 104.40234 L 54.628906 104.40234 C 37.265905 104.40996 22.85511 118.86269 22.859375 136.26172 C 22.855567 153.66083 37.265867 168.11057 54.628906 168.11914 L 54.640625 168.11914 L 54.640625 231.8125 C 54.636893 249.22033 69.059919 263.67618 86.431641 263.67188 L 86.443359 263.67188 C 103.80644 263.66426 118.21719 249.21161 118.21289 231.8125 L 118.21289 168.11914 C 124.09833 168.12024 129.33528 166.01683 134.09766 163.14648 L 134.09766 231.8125 C 134.09552 275.60413 169.86553 311.44997 213.56641 311.44727 L 261.24414 311.44727 C 278.6159 311.45107 293.0395 296.99572 293.03516 279.58789 C 293.03896 262.18014 278.61582 247.72617 261.24414 247.73047 L 277.13867 247.74219 L 356.60938 247.74219 L 356.62109 247.74219 C 365.99856 247.72315 374.89558 245.12569 383.23828 241.20508 L 393.72656 259.4043 C 402.41033 274.4632 422.09957 279.74365 437.13477 271.05273 L 437.13477 271.06445 L 450.90625 263.09375 L 450.91797 263.09375 C 452.76793 262.02254 453.98285 260.35642 455.5293 258.98047 C 455.2182 273.29157 464.12198 286.79512 478.43945 290.63867 L 478.43945 290.62695 L 493.78516 294.75391 C 504.07911 297.52457 514.56916 292.61268 519.9707 283.89062 C 530.20191 283.56547 539.68622 276.91644 542.44727 266.60938 C 542.76331 265.42974 542.5314 264.26647 542.6582 263.08203 L 551.50391 278.44727 L 551.50391 278.45898 C 560.19186 293.52592 579.88645 298.80159 594.92188 290.09766 L 622.44531 274.17969 C 625.04609 272.67596 626.93603 270.49076 628.93164 268.4082 C 642.31282 293.60155 667.95788 311.44357 698.27734 311.44727 L 745.95508 311.44727 C 763.32676 311.45107 777.75043 296.99572 777.74609 279.58789 C 777.7499 262.18014 763.32676 247.7262 745.95508 247.73047 L 698.27734 247.73047 C 689.31367 247.72936 682.39376 240.79479 682.39258 231.8125 L 682.39258 88.484375 C 682.39639 71.076623 667.97129 56.620698 650.59961 56.625 C 648.52868 56.625419 646.68673 57.584224 644.6875 57.978516 L 637.20312 44.988281 C 628.52119 29.909769 608.81602 24.618203 593.77344 33.326172 L 580.02344 41.285156 C 578.16993 42.356781 576.95161 44.021004 575.40234 45.398438 C 575.71877 31.083 566.81163 17.573016 552.49023 13.728516 L 552.47852 13.728516 L 537.12109 9.6132812 C 535.04396 9.0559192 532.90212 8.7840021 530.75195 8.8027344 L 530.74023 8.8027344 z M 530.89062 24.728516 A 7.9461507 7.9626506 0 0 1 533.01953 24.998047 L 548.36914 29.119141 A 15.892301 15.925302 0 0 1 559.60938 48.625 L 550.95117 80.994141 A 79.461511 79.626514 0 0 1 584.2793 112.37305 A 79.461511 79.626514 0 0 1 584.2793 112.37695 L 625.57031 88.488281 L 609.67969 60.904297 L 595.91602 68.867188 L 599.88867 75.763672 A 7.9461507 7.9626506 0 0 1 596.98047 86.640625 A 7.9461507 7.9626506 0 0 1 586.125 83.726562 L 582.15234 76.830078 A 15.892301 15.925302 0 0 1 587.96875 55.072266 L 601.73242 47.111328 A 15.892301 15.925302 0 0 1 623.44141 52.943359 L 638.19141 78.541016 A 15.892301 15.925302 0 0 1 650.60547 72.560547 A 15.892301 15.925302 0 0 1 666.49609 88.484375 L 666.49609 231.8125 A 31.784603 31.850603 0 0 0 698.28125 263.66406 L 745.95898 263.66406 A 15.892301 15.925302 0 0 1 761.85156 279.58789 A 15.892301 15.925302 0 0 1 745.95898 295.51367 L 698.28125 295.51367 A 63.569206 63.701207 0 0 1 634.71289 231.8125 L 634.71289 191.72266 A 15.892301 15.925302 0 0 1 618.81055 196.42578 L 586.50781 187.75 A 79.461511 79.626514 0 0 1 555.19141 221.14648 L 579.0293 262.52148 L 606.55664 246.5957 L 598.60938 232.80469 L 591.72852 236.78711 A 7.9461507 7.9626506 0 0 1 580.875 233.87109 A 7.9461507 7.9626506 0 0 1 583.7832 222.99414 L 590.66406 219.01367 A 15.892301 15.925302 0 0 1 612.37305 224.8418 L 620.31836 238.63477 A 15.892301 15.925302 0 0 1 614.50195 260.38867 L 586.97656 276.3125 A 15.892301 15.925302 0 0 1 565.26758 270.48438 L 540.625 227.71289 A 79.461511 79.626514 0 0 1 494.91016 229.05469 L 486.66797 259.87109 L 502.01758 263.99219 A 7.9461507 7.9626506 0 0 1 507.63672 273.74805 A 7.9461507 7.9626506 0 0 1 497.9043 279.37695 L 482.55664 275.25586 A 15.892301 15.925302 0 0 1 471.31641 255.75 L 479.97266 223.38086 A 79.461511 79.626514 0 0 1 446.64648 192 L 405.35742 215.88672 L 421.25 243.4707 L 435.01172 235.50781 L 431.03906 228.61133 A 7.9461507 7.9626506 0 0 1 433.94727 217.73438 A 7.9461507 7.9626506 0 0 1 444.80273 220.65039 L 448.77539 227.54492 A 15.892301 15.925302 0 0 1 442.95898 249.29883 L 429.19531 257.26172 A 15.892301 15.925302 0 0 1 407.48633 251.43359 L 391.59375 223.84961 A 15.892301 15.925302 0 0 1 389.66602 218.37891 A 47.676906 47.775907 0 0 1 356.59766 231.8125 L 277.13477 231.8125 A 15.892301 15.925302 0 0 1 261.24219 215.88672 A 15.892301 15.925302 0 0 1 277.13477 199.96289 L 356.59766 199.96289 A 15.892363 15.925363 0 0 0 372.49023 184.03711 A 15.892363 15.925363 0 0 0 356.59766 168.11133 L 308.91992 168.11133 A 47.676906 47.775907 0 0 1 261.24219 120.33594 A 47.676906 47.775907 0 0 1 308.91992 72.560547 L 356.59766 72.560547 A 15.892301 15.925302 0 0 1 372.49023 88.484375 A 15.892301 15.925302 0 0 1 356.59766 104.41016 L 308.91992 104.41016 A 15.892363 15.925363 0 0 0 293.02734 120.33594 A 15.892363 15.925363 0 0 0 308.91992 136.26172 L 356.59766 136.26172 A 47.676906 47.775907 0 0 1 404.27344 184.03711 A 47.676906 47.775907 0 0 1 401.58594 199.67969 L 440.09375 177.40234 A 79.461511 79.626514 0 0 1 438.75586 131.5918 L 408.00195 123.33398 L 403.88867 138.71484 L 403.88477 138.71484 A 7.9461507 7.9626506 0 0 1 394.1543 144.34766 A 7.9461507 7.9626506 0 0 1 388.53711 134.59375 L 392.65039 119.21289 A 15.892301 15.925302 0 0 1 412.11523 107.94922 L 444.41797 116.625 A 79.461511 79.626514 0 0 1 475.73047 83.228516 A 79.461511 79.626514 0 0 0 475.73242 83.228516 L 451.89453 41.851562 L 424.36914 57.775391 L 432.31445 71.568359 L 439.19727 67.585938 A 7.9461507 7.9626506 0 0 1 450.05078 70.5 A 7.9461507 7.9626506 0 0 1 447.14258 81.380859 L 440.26172 85.361328 A 15.892301 15.925302 0 0 1 418.55273 79.529297 L 410.60547 65.738281 A 15.892301 15.925302 0 0 1 416.42188 43.984375 L 443.94922 28.058594 A 15.892301 15.925302 0 0 1 465.6582 33.888672 L 490.30273 76.662109 A 79.461511 79.626514 0 0 1 536.01562 75.322266 L 544.25586 44.503906 L 528.9043 40.382812 A 7.9461507 7.9626506 0 0 1 523.28711 30.628906 A 7.9461507 7.9626506 0 0 1 530.89062 24.728516 z M 229.45898 24.78125 A 15.892301 15.925302 0 0 1 245.35156 40.707031 A 15.892301 15.925302 0 0 1 229.45898 56.632812 A 15.892301 15.925302 0 0 1 213.56641 40.707031 A 15.892301 15.925302 0 0 1 229.45898 24.78125 z M 511.42578 35.986328 A 7.9461507 7.9626506 0 0 1 513.55469 36.255859 A 7.9461507 7.9626506 0 0 1 519.17383 46.009766 A 7.9461507 7.9626506 0 0 1 509.44336 51.640625 A 7.9461507 7.9626506 0 0 1 503.82422 41.888672 A 7.9461507 7.9626506 0 0 1 511.42578 35.986328 z M 134.10547 40.707031 L 134.10547 40.708984 A 15.892301 15.925302 0 0 1 149.99609 56.634766 A 15.892301 15.925302 0 0 1 134.10547 72.560547 A 31.784603 31.850603 0 0 0 102.32031 104.41016 L 102.32031 120.33594 L 118.21289 120.33594 A 15.892301 15.925302 0 0 1 134.10547 136.26172 A 15.892301 15.925302 0 0 1 118.21289 152.18555 L 102.32031 152.18555 L 102.32031 231.8125 A 15.892301 15.925302 0 0 1 86.427734 247.73828 A 15.892301 15.925302 0 0 1 70.535156 231.8125 L 70.535156 152.18555 L 54.642578 152.18555 A 15.892301 15.925302 0 0 1 38.75 136.26172 A 15.892301 15.925302 0 0 1 54.642578 120.33594 L 70.535156 120.33594 L 70.535156 104.41016 A 63.569206 63.701207 0 0 1 132.76367 40.775391 A 15.892301 15.925302 0 0 1 134.10547 40.707031 z M 522.66602 55.490234 A 7.9461507 7.9626506 0 0 1 524.79102 55.761719 A 7.9461507 7.9626506 0 0 1 530.41211 65.513672 A 7.9461507 7.9626506 0 0 1 520.67969 71.146484 A 7.9461507 7.9626506 0 0 1 515.06055 61.390625 A 7.9461507 7.9626506 0 0 1 522.66602 55.490234 z M 165.88867 72.558594 L 165.88867 72.560547 A 15.892301 15.925302 0 0 1 181.78125 88.484375 L 181.78125 231.8125 A 31.784603 31.850603 0 0 0 213.56641 263.66406 L 261.24219 263.66406 A 15.892301 15.925302 0 0 1 277.13477 279.58789 A 15.892301 15.925302 0 0 1 261.24219 295.51172 L 213.56641 295.51172 A 63.569206 63.701207 0 0 1 149.99609 231.81055 L 149.99609 88.482422 A 15.892301 15.925302 0 0 1 165.88867 72.558594 z M 229.45898 72.558594 A 15.892301 15.925302 0 0 1 245.35156 88.482422 L 245.35156 215.88477 A 15.892301 15.925302 0 0 1 229.45898 231.81055 A 15.892301 15.925302 0 0 1 213.56641 215.88477 L 213.56641 88.482422 A 15.892301 15.925302 0 0 1 229.45898 72.558594 z M 479.15039 87.892578 L 479.15039 87.894531 A 7.9461507 7.9626506 0 0 0 475.36328 88.957031 A 7.9461507 7.9626506 0 0 0 472.45508 99.833984 L 480.40234 113.62695 A 7.9461507 7.9626506 0 0 0 491.25586 116.54102 L 495.22852 123.43945 L 474.58203 135.38086 A 7.9461507 7.9626506 0 0 0 471.67383 146.25977 L 483.5918 166.94727 A 7.9461507 7.9626506 0 0 0 494.44727 169.86328 L 501.33203 165.88086 L 529.14062 214.15234 A 7.9461507 7.9626506 0 0 0 539.99805 217.06641 A 7.9461507 7.9626506 0 0 0 542.90625 206.18945 L 556.66992 198.22656 A 7.9461507 7.9626506 0 0 0 559.57812 187.34961 L 551.63086 173.55664 L 565.39453 165.5957 A 7.9461507 7.9626506 0 0 0 568.30273 154.7168 L 552.41016 127.13477 A 7.9461507 7.9626506 0 0 0 541.55664 124.2207 L 520.91211 136.16406 A 7.9461507 7.9626506 0 0 0 518.00391 147.04102 A 7.9461507 7.9626506 0 0 0 528.85742 149.95508 L 542.62109 141.99219 L 550.56641 155.78516 L 536.80469 163.74805 A 7.9461507 7.9626506 0 0 0 533.89453 174.625 L 541.8418 188.41602 L 534.96094 192.39648 L 511.12109 151.02344 A 7.9461507 7.9626506 0 0 0 500.26758 148.10742 L 493.38281 152.08984 L 489.41211 145.19336 L 510.05664 133.25 A 7.9461507 7.9626506 0 0 0 512.96484 122.37305 L 501.04688 101.68164 A 7.9461507 7.9626506 0 0 0 490.19141 98.767578 L 486.21875 91.871094 A 7.9461507 7.9626506 0 0 0 479.70898 87.900391 A 7.9461507 7.9626506 0 0 0 479.15039 87.892578 z M 634.71289 101.50391 A 15.892301 15.925302 0 0 1 633.51758 102.27734 L 590.83203 126.97461 A 79.461511 79.626514 0 0 1 592.16992 172.78125 L 622.92383 181.03906 L 627.03711 165.65625 A 7.9461507 7.9626506 0 0 1 634.71289 159.76367 L 634.71289 101.50391 z M 426.84375 136.93359 A 7.9461507 7.9626506 0 0 1 428.96875 137.20508 A 7.9461507 7.9626506 0 0 1 434.58984 146.95898 A 7.9461507 7.9626506 0 0 1 424.85547 152.58789 A 7.9461507 7.9626506 0 0 1 419.23828 142.83398 A 7.9461507 7.9626506 0 0 1 426.84375 136.93359 z M 623.4043 140.25 A 7.9461507 7.9626506 0 0 1 625.53125 140.52344 A 7.9461507 7.9626506 0 0 1 631.14844 150.27539 A 7.9461507 7.9626506 0 0 1 621.41797 155.9043 A 7.9461507 7.9626506 0 0 1 615.80078 146.15234 A 7.9461507 7.9626506 0 0 1 623.4043 140.25 z M 407.37695 148.19727 A 7.9461507 7.9626506 0 0 1 409.50781 148.4668 A 7.9461507 7.9626506 0 0 1 415.125 158.21875 A 7.9461507 7.9626506 0 0 1 405.39453 163.84766 A 7.9461507 7.9626506 0 0 1 399.77344 154.09766 A 7.9461507 7.9626506 0 0 1 407.37695 148.19727 z M 603.93945 151.51172 A 7.9461507 7.9626506 0 0 1 606.06641 151.7832 A 7.9461507 7.9626506 0 0 1 611.6875 161.53516 A 7.9461507 7.9626506 0 0 1 601.95312 167.16797 A 7.9461507 7.9626506 0 0 1 596.33398 157.41211 A 7.9461507 7.9626506 0 0 1 603.93945 151.51172 z M 508.11719 232.95508 A 7.9461507 7.9626506 0 0 1 510.24609 233.22656 A 7.9461507 7.9626506 0 0 1 515.86523 242.98047 A 7.9461507 7.9626506 0 0 1 506.13086 248.60938 A 7.9461507 7.9626506 0 0 1 500.51172 238.85547 A 7.9461507 7.9626506 0 0 1 508.11719 232.95508 z M 519.35352 252.46094 A 7.9461507 7.9626506 0 0 1 521.48242 252.73242 A 7.9461507 7.9626506 0 0 1 527.10156 262.48242 A 7.9461507 7.9626506 0 0 1 517.36914 268.11328 A 7.9461507 7.9626506 0 0 1 511.75195 258.36133 A 7.9461507 7.9626506 0 0 1 519.35352 252.46094 z "
         transform="matrix(0.26262107,0,0,0.26264793,317.22524,-317.07583)"
         id="path5601-3" />
    </g>
    <path
       style="fill:#de1921;fill-opacity:1;stroke-width:0.01661606"
       inkscape:connector-curvature="0"
       d="m 303.27789,12.417892 c -1.69485,0.215972 -3.68871,0.747727 -5.61621,1.511981 -0.91389,0.349013 -1.7613,0.714495 -1.86101,0.780956 -0.13291,0.0834 0.59823,0.465293 1.99392,1.013633 8.34128,3.356446 15.93481,8.075419 21.18543,13.20975 l 1.87775,1.844349 0.33219,-0.415358 c 0.68138,-0.88065 1.44563,-2.675239 1.64509,-3.854968 0.29907,-1.694781 0.0337,-3.27334 -0.8309,-5.051226 -1.42893,-2.974317 -3.57242,-4.669156 -6.46362,-5.134331 l -0.73104,-0.116396 0.53165,0.88065 c 1.87768,3.140473 2.89115,6.048271 2.80815,8.075477 l -0.0499,1.129853 -0.56499,-1.578501 c -1.5452,-4.386606 -3.45602,-8.540711 -4.56933,-10.002932 -1.29602,-1.694837 -5.84883,-2.774814 -9.68716,-2.292937 z"
       id="path10-4"
       inkscape:export-xdpi="90.690002"
       inkscape:export-ydpi="90.690002" />
    <path
       style="fill:#de1921;fill-opacity:1;stroke-width:0.01661606"
       inkscape:connector-curvature="0"
       d="m 297.44571,17.784841 c 1.31259,2.326227 3.30657,6.330704 3.52254,7.045199 0.16614,0.531755 1.08009,0.614803 4.61927,0.398831 1.67826,-0.09957 3.33992,-0.182742 3.70534,-0.166213 h 0.66468 l -0.74766,0.232675 c -1.41246,0.448589 -3.72205,0.747726 -5.68268,0.747726 -1.08009,0 -1.96075,0.04988 -1.96075,0.132924 0,0.199386 0.83078,1.362471 1.89429,2.675064 3.19029,3.871672 8.75657,7.095077 14.67198,8.474307 1.79441,0.415358 4.63586,0.847419 5.68266,0.847419 1.19638,0 0.5981,0.282434 -1.296,0.581513 -1.22973,0.215972 -2.25989,0.265906 -3.65564,0.215972 -2.4425,-0.116279 -3.63889,-0.498406 -7.27776,-2.376101 l -2.70847,-1.379058 0.79765,0.99693 c 2.04374,2.625305 5.86537,5.333717 9.55417,6.79594 0.48188,0.199443 1.61174,0.515107 2.52562,0.731196 1.62837,0.365425 1.64496,0.382128 0.99692,0.498408 -1.52867,0.299078 -5.30042,-0.415359 -9.28831,-1.761243 -1.0801,-0.365541 -1.99398,-0.631446 -2.02721,-0.598215 -0.13281,0.132924 2.04386,2.010561 2.97432,2.575545 2.67524,1.611674 5.53316,2.376103 8.95613,2.425862 1.16308,0 1.97727,0.066 1.82764,0.132983 -0.14951,0.066 -1.36252,0.116337 -2.69176,0.116337 -2.54226,0.01624 -4.8519,-0.332311 -5.99834,-0.88065 -0.41547,-0.216089 -0.14963,0.116278 1.01346,1.212902 1.82782,1.728069 1.92751,1.645019 -1.41229,1.262777 -1.17973,-0.132923 -2.22659,-0.249203 -2.32629,-0.249203 -0.0833,0 1.08003,0.830774 2.59219,1.844348 l 2.77482,1.82782 2.95761,0.48182 c 1.64509,0.265906 4.80214,0.714495 7.04533,0.997046 2.24311,0.265789 4.30343,0.531638 4.60256,0.564867 0.43206,0.066 0.51506,0.03364 0.43206,-0.199385 -0.24919,-0.764313 -4.81872,-9.853246 -5.86552,-11.664422 -4.46965,-7.77634 -8.7898,-12.91073 -14.40613,-17.097891 -4.76873,-3.55589 -11.46503,-7.294521 -17.01483,-9.487764 l -0.76432,-0.299079 z"
       id="path14-9"
       inkscape:export-xdpi="90.690002"
       inkscape:export-ydpi="90.690002" />
    <path
       style="fill:#427331;fill-opacity:1;stroke-width:0.01661606"
       inkscape:connector-curvature="0"
       d="m 321.18996,18.515923 c 0.83089,1.129853 1.09675,1.395701 1.57862,1.545327 0.5317,0.182742 7.95902,7.52702 8.95607,8.889549 0.28244,0.365541 0.74773,0.930526 1.06339,1.246248 0.91388,0.963699 2.94097,4.1207 3.82162,5.981751 1.54539,3.273455 1.92752,5.815596 1.778,11.631191 -0.0499,2.24318 -0.14956,4.419954 -0.19939,4.851898 l -0.0995,0.764428 0.73103,0.09957 c 0.38224,0.04988 3.25675,0.365599 6.36405,0.681264 3.10712,0.315666 7.44397,0.814189 9.63721,1.080037 3.85497,0.481877 10.76719,1.561913 11.29901,1.7613 0.18267,0.0834 0.13286,-0.1828 -0.23268,-0.996989 -1.56192,-3.456195 -2.39269,-7.576953 -3.17359,-15.635727 -0.9804,-10.152384 -1.64507,-11.980204 -5.06804,-13.990707 -2.85793,-1.678194 -6.29742,-2.45915 -15.70213,-3.539187 -5.21739,-0.598215 -6.99539,-0.864121 -9.22186,-1.412462 -1.27948,-0.298963 -9.45454,-2.575371 -11.44845,-3.173587 -0.2825,-0.09957 -0.2825,-0.066 -0.0833,0.215972 z"
       id="path18-9"
       inkscape:export-xdpi="90.690002"
       inkscape:export-ydpi="90.690002" />
    <path
       style="fill:#de1921;fill-opacity:1;stroke-width:0.01661606"
       inkscape:connector-curvature="0"
       d="m 322.96796,22.071811 c 0.18275,0.764255 0.26586,1.894224 0.26586,3.971248 0.0162,3.223521 -0.19939,4.353374 -0.99699,5.300487 l -0.43194,0.515109 0.81418,0.963699 c 3.37303,3.921429 7.32758,10.285365 10.46811,16.815456 0.94711,1.960685 1.86087,3.838265 2.0105,4.154046 0.2492,0.498407 0.36554,0.581571 0.86401,0.581571 h 0.58151 l 0.19944,-1.329296 c 0.7976,-5.466642 0.61475,-10.983276 -0.46517,-14.372835 -0.3656,-1.146555 -2.09368,-4.652511 -2.29311,-4.652511 -0.0661,0 -0.33232,0.880533 -0.58152,1.944041 -0.2659,1.080036 -0.54834,2.077022 -0.63151,2.209947 -0.11621,0.199386 -0.13291,0.166154 -0.0659,-0.0834 0.0499,-0.182742 0.28261,-1.329297 0.51522,-2.525613 l 0.43195,-2.209889 -0.78097,-1.096739 c -0.96369,-1.345883 -0.83077,-1.595202 -1.64496,3.09054 -0.33237,1.861051 -0.63145,3.422965 -0.66468,3.472724 -0.1662,0.149627 -0.0499,-2.492323 0.23262,-5.632739 l 0.29915,-3.240165 -0.76432,-0.897236 c -0.91388,-1.096623 -5.28396,-5.732606 -6.6299,-7.061845 l -0.99688,-0.963699 z"
       id="path26-1"
       inkscape:export-xdpi="90.690002"
       inkscape:export-ydpi="90.690002" />
    <path
       style="fill:#427331;fill-opacity:1;stroke-width:0.01661606"
       inkscape:connector-curvature="0"
       d="m 302.16455,30.180461 c -0.0499,0.149511 -0.31566,1.379056 -0.5981,2.758229 -0.91388,4.369962 -1.6616,7.576954 -2.34286,9.986288 -0.3489,1.279363 -0.64798,2.409332 -0.64798,2.509026 0,0.365482 7.85933,2.808046 12.46203,3.871438 1.2296,0.282551 2.39268,0.564985 2.57554,0.61486 0.21598,0.06605 0.11622,-0.09957 -0.29913,-0.481936 -0.78096,-0.747726 -0.84741,-1.511981 -0.18286,-2.193246 0.34902,-0.348895 0.59821,-0.432059 1.22973,-0.432059 0.76424,0 0.79748,-0.01624 0.61474,-0.382127 -0.0833,-0.199387 -0.66468,-0.681265 -1.2629,-1.063392 -2.32622,-1.478866 -3.63888,-3.007549 -3.40626,-3.954719 0.13292,-0.564869 0.83083,-1.080036 1.46216,-1.080036 l 0.51511,-0.01624 -0.78096,-0.664561 c -0.88064,-0.747726 -2.22647,-2.376103 -3.30656,-4.004479 -0.48182,-0.697908 -1.12986,-1.379173 -1.81113,-1.894282 -0.59821,-0.448589 -1.7613,-1.495452 -2.60871,-2.326169 -1.12985,-1.12997 -1.56191,-1.445692 -1.61186,-1.246248 z"
       id="path32-9"
       inkscape:export-xdpi="90.690002"
       inkscape:export-ydpi="90.690002" />
    <path
       style="fill:#427331;fill-opacity:1;stroke-width:0.01661606"
       inkscape:connector-curvature="0"
       d="m 287.72526,45.865947 c -2.25976,0.714497 -3.157,3.190292 -2.79151,7.693292 0.31578,3.7054 0.78095,5.06787 2.01061,5.782365 0.56487,0.348896 0.86401,0.348896 13.54207,0.465291 32.56746,0.282435 54.83297,1.478751 78.17852,4.220451 1.96068,0.232618 3.82174,0.3656 4.12087,0.315666 2.99086,-0.54834 -6.91239,-4.419837 -15.91827,-6.231012 -6.48028,-1.296008 -12.54508,-1.977273 -27.00113,-2.990847 -10.5678,-0.747726 -15.08733,-1.146555 -19.83954,-1.7613 -10.10251,-1.296066 -17.57977,-3.107183 -25.60525,-6.214425 -3.75528,-1.462221 -5.20097,-1.744656 -6.69637,-1.279481 z"
       id="path48-4"
       inkscape:export-xdpi="90.690002"
       inkscape:export-ydpi="90.690002" />
    <text
       id="text27583"
       y="432.84479"
       x="15.951518"
       style="font-style:normal;font-variant:normal;font-weight:normal;font-stretch:normal;font-size:78.57358551px;line-height:125%;font-family:Comfortaa;-inkscape-font-specification:'Comfortaa, Normal';text-align:start;letter-spacing:0px;word-spacing:0px;writing-mode:lr-tb;text-anchor:start;display:inline;fill:#ff8e2a;fill-opacity:1;stroke:none;stroke-width:0.93377507;enable-background:new"
       xml:space="preserve"
       transform="scale(1.1412733,0.8762143)"
       sodipodi:linespacing="125%"><tspan
         sodipodi:role="line"
         id="tspan3343"
         x="15.951518"
         y="432.84479">BLUMENAU 2018</tspan></text>
  </g>
</svg>
