<?xml version="1.0" encoding="UTF-8" standalone="no"?>
<!-- Created with Inkscape (http://www.inkscape.org/) -->

<svg
   xmlns:dc="http://purl.org/dc/elements/1.1/"
   xmlns:cc="http://creativecommons.org/ns#"
   xmlns:rdf="http://www.w3.org/1999/02/22-rdf-syntax-ns#"
   xmlns:svg="http://www.w3.org/2000/svg"
   xmlns="http://www.w3.org/2000/svg"
   xmlns:sodipodi="http://sodipodi.sourceforge.net/DTD/sodipodi-0.dtd"
   xmlns:inkscape="http://www.inkscape.org/namespaces/inkscape"
   width="800px"
   height="400px"
   viewBox="0 0 800 400"
   version="1.1"
   id="SVGRoot"
   inkscape:version="0.92.0 r"
   sodipodi:docname="flisol_bnu_logo_novo_sem_texto.svg">
  <sodipodi:namedview
     id="base"
     pagecolor="#ffffff"
     bordercolor="#666666"
     borderopacity="1.0"
     inkscape:pageopacity="0.0"
     inkscape:pageshadow="2"
     inkscape:zoom="0.98994949"
     inkscape:cx="-157.77506"
     inkscape:cy="234.12384"
     inkscape:document-units="px"
     inkscape:current-layer="layer1"
     showgrid="false"
     inkscape:window-width="2560"
     inkscape:window-height="1016"
     inkscape:window-x="0"
     inkscape:window-y="27"
     inkscape:window-maximized="1" />
  <defs
     id="defs1330" />
  <metadata
     id="metadata1333">
    <rdf:RDF>
      <cc:Work
         rdf:about="">
        <dc:format>image/svg+xml</dc:format>
        <dc:type
           rdf:resource="http://purl.org/dc/dcmitype/StillImage" />
        <dc:title></dc:title>
      </cc:Work>
    </rdf:RDF>
  </metadata>
  <g
     id="layer1"
     inkscape:groupmode="layer"
     inkscape:label="Layer 1">
    <g
       id="g6375"
       transform="matrix(3.8077676,0,0,3.8073782,-1207.92,1247.2276)">
      <path
         style="color:#000000;font-style:normal;font-variant:normal;font-weight:normal;font-stretch:normal;font-size:medium;line-height:normal;font-family:sans-serif;text-indent:0;text-align:start;text-decoration:none;text-decoration-line:none;text-decoration-style:solid;text-decoration-color:#000000;letter-spacing:normal;word-spacing:normal;text-transform:none;writing-mode:lr-tb;direction:ltr;baseline-shift:baseline;text-anchor:start;white-space:normal;clip-rule:nonzero;display:inline;overflow:visible;visibility:visible;opacity:1;isolation:auto;mix-blend-mode:normal;color-interpolation:sRGB;color-interpolation-filters:linearRGB;solid-color:#000000;solid-opacity:1;fill:#ff8e2a;fill-opacity:1;fill-rule:nonzero;stroke:none;stroke-width:7.61514568;stroke-linecap:round;stroke-linejoin:round;stroke-miterlimit:4;stroke-dasharray:none;stroke-dashoffset:0;stroke-opacity:1;color-rendering:auto;image-rendering:auto;shape-rendering:auto;text-rendering:auto;enable-background:accumulate"
         d="m 530.74023,26.802734 c -7.97373,0.07348 -14.26293,4.967035 -18.57226,11.369141 -0.29663,-0.0076 -0.58171,-0.120233 -0.87891,-0.117187 h -0.0117 c -10.633,0.09823 -20.05453,7.410639 -22.80664,17.703124 h 0.0117 c -0.31833,1.187522 -0.0849,2.358539 -0.21094,3.550782 l -8.85742,-15.376953 c -8.68144,-15.06492 -28.36838,-20.354506 -43.40625,-11.66211 l -27.5332,15.929688 C 393.44695,56.90102 388.17482,76.62887 396.84766,91.695312 l 7.9414,13.791018 c 1.07223,1.86222 2.74016,3.08677 4.11914,4.64258 -9.13015,-0.20636 -17.68664,3.31977 -23.83984,9.85156 1.99615,-4.14742 3.32153,-8.63891 3.32031,-13.49609 0.004,-17.407757 -14.41933,-31.861729 -31.79101,-31.857427 h -47.67774 c -20.14355,0 -37.40918,10.155696 -49.08398,24.957031 -1.57139,-6.741153 -4.966,-12.601789 -10.08985,-16.986328 6.8651,-5.874556 11.4985,-14.275422 11.4961,-23.888672 0.004,-17.399033 -14.40458,-31.850808 -31.76758,-31.859375 h -0.0117 c -17.37107,-0.0038 -31.79719,14.451623 -31.79297,31.859375 -0.003,9.612298 4.63447,18.014306 11.49805,23.888672 -6.85726,5.86896 -11.47874,14.261454 -11.48438,23.863284 -0.0114,-17.397094 -14.4292,-31.838289 -31.79297,-31.833987 -0.002,-17.393741 -14.41048,-31.839128 -31.76953,-31.847656 h -0.082 -0.082 c -0.51294,0.0038 -1.02489,0.05348 -1.53711,0.08203 -43.019433,0.9124 -77.743997,36.422648 -77.779295,79.541013 h -0.01172 c -17.363001,0.008 -31.773796,14.46035 -31.769531,31.85938 -0.0038,17.39911 14.406492,31.84885 31.769531,31.85742 h 0.01172 v 63.69336 c -0.0037,17.40783 14.419294,31.86368 31.791016,31.85938 h 0.01172 c 17.363079,-0.008 31.773829,-14.46027 31.769529,-31.85938 v -63.69336 c 5.88544,0.001 11.12239,-2.10231 15.88477,-4.97266 v 68.66602 c -0.002,43.79163 35.76787,79.63747 79.46875,79.63477 h 47.67773 c 17.37176,0.004 31.79536,-14.45155 31.79102,-31.85938 0.004,-17.40775 -14.41934,-31.86172 -31.79102,-31.85742 l 15.89453,0.0117 h 79.47071 0.0117 c 9.37747,-0.019 18.27449,-2.6165 26.61719,-6.53711 l 10.48828,18.19922 c 8.68377,15.0589 28.37301,20.33935 43.40821,11.64843 v 0.0117 l 13.77148,-7.9707 h 0.0117 c 1.84996,-1.07121 3.06488,-2.73733 4.61133,-4.11328 -0.3111,14.3111 8.59268,27.81465 22.91015,31.6582 v -0.0117 l 15.34571,4.12696 c 10.29395,2.77066 20.784,-2.14123 26.18554,-10.86329 10.23121,-0.32515 19.71552,-6.97418 22.47657,-17.28124 0.31604,-1.17964 0.0841,-2.34291 0.21093,-3.52735 l 8.84571,15.36524 v 0.0117 c 8.68795,15.06694 28.38254,20.34261 43.41797,11.63868 l 27.52343,-15.91797 c 2.60078,-1.50373 4.49072,-3.68893 6.48633,-5.77149 13.38118,25.19335 39.02624,43.03537 69.3457,43.03907 h 47.67774 c 17.37168,0.004 31.79535,-14.45155 31.79101,-31.85938 0.004,-17.40775 -14.41933,-31.86169 -31.79101,-31.85742 h -47.67774 c -8.96367,-10e-4 -15.88358,-6.93568 -15.88476,-15.91797 V 106.48438 c 0.004,-17.407757 -14.42129,-31.863682 -31.79297,-31.85938 -2.07093,4.19e-4 -3.91288,0.959224 -5.91211,1.353516 L 637.20312,62.988281 C 628.52119,47.909769 608.81602,42.618203 593.77344,51.326172 l -13.75,7.958984 c -1.85351,1.071625 -3.07183,2.735848 -4.6211,4.113282 C 575.71877,49.083 566.81163,35.573016 552.49023,31.728516 h -0.0117 L 537.1211,27.613281 c -2.07713,-0.557362 -4.21897,-0.829279 -6.36914,-0.810547 z m 0.15039,15.925782 a 7.9461507,7.9626506 0 0 1 2.12891,0.269531 l 15.34961,4.121094 A 15.892301,15.925302 0 0 1 559.60938,66.625 l -8.65821,32.369141 a 79.461511,79.626514 0 0 1 33.32813,31.378909 79.461511,79.626514 0 0 1 0,0.004 l 41.29101,-23.88867 -15.89062,-27.583983 -13.76367,7.962891 3.97265,6.896484 a 7.9461507,7.9626506 0 0 1 -2.9082,10.876948 7.9461507,7.9626506 0 0 1 -10.85547,-2.91406 l -3.97266,-6.896482 a 15.892301,15.925302 0 0 1 5.81641,-21.757812 l 13.76367,-7.960938 a 15.892301,15.925302 0 0 1 21.70899,5.832031 l 14.75,25.597657 a 15.892301,15.925302 0 0 1 12.41406,-5.980469 15.892301,15.925302 0 0 1 15.89062,15.923833 V 249.8125 a 31.784603,31.850603 0 0 0 31.78516,31.85156 h 47.67773 a 15.892301,15.925302 0 0 1 15.89258,15.92383 15.892301,15.925302 0 0 1 -15.89258,15.92578 H 698.28125 A 63.569206,63.701207 0 0 1 634.71289,249.8125 v -40.08984 a 15.892301,15.925302 0 0 1 -15.90234,4.70312 L 586.50781,205.75 a 79.461511,79.626514 0 0 1 -31.3164,33.39648 l 23.83789,41.375 27.52734,-15.92578 -7.94726,-13.79101 -6.88086,3.98242 a 7.9461507,7.9626506 0 0 1 -10.85352,-2.91602 7.9461507,7.9626506 0 0 1 2.9082,-10.87695 l 6.88086,-3.98047 a 15.892301,15.925302 0 0 1 21.70899,5.82813 l 7.94531,13.79297 a 15.892301,15.925302 0 0 1 -5.81641,21.7539 l -27.52539,15.92383 a 15.892301,15.925302 0 0 1 -21.70898,-5.82812 L 540.625,245.71289 a 79.461511,79.626514 0 0 1 -45.71484,1.3418 l -8.24219,30.8164 15.34961,4.1211 a 7.9461507,7.9626506 0 0 1 5.61914,9.75586 7.9461507,7.9626506 0 0 1 -9.73242,5.6289 l -15.34766,-4.12109 A 15.892301,15.925302 0 0 1 471.31641,273.75 l 8.65625,-32.36914 A 79.461511,79.626514 0 0 1 446.64648,210 l -41.28906,23.88672 15.89258,27.58398 13.76172,-7.96289 -3.97266,-6.89648 a 7.9461507,7.9626506 0 0 1 2.90821,-10.87695 7.9461507,7.9626506 0 0 1 10.85546,2.91601 l 3.97266,6.89453 a 15.892301,15.925302 0 0 1 -5.81641,21.75391 l -13.76367,7.96289 a 15.892301,15.925302 0 0 1 -21.70898,-5.82813 l -15.89258,-27.58398 a 15.892301,15.925302 0 0 1 -1.92773,-5.4707 47.676906,47.775907 0 0 1 -33.06836,13.43359 h -79.46289 a 15.892301,15.925302 0 0 1 -15.89258,-15.92578 15.892301,15.925302 0 0 1 15.89258,-15.92383 h 79.46289 a 15.892363,15.925363 0 0 0 15.89257,-15.92578 15.892363,15.925363 0 0 0 -15.89257,-15.92578 h -47.67774 a 47.676906,47.775907 0 0 1 -47.67773,-47.77539 47.676906,47.775907 0 0 1 47.67773,-47.775393 h 47.67774 a 15.892301,15.925302 0 0 1 15.89257,15.923833 15.892301,15.925302 0 0 1 -15.89257,15.92578 h -47.67774 a 15.892363,15.925363 0 0 0 -15.89258,15.92578 15.892363,15.925363 0 0 0 15.89258,15.92578 h 47.67774 a 47.676906,47.775907 0 0 1 47.67578,47.77539 47.676906,47.775907 0 0 1 -2.6875,15.64258 l 38.50781,-22.27735 a 79.461511,79.626514 0 0 1 -1.33789,-45.81054 l -30.75391,-8.25782 -4.11328,15.38086 h -0.004 a 7.9461507,7.9626506 0 0 1 -9.73047,5.63282 7.9461507,7.9626506 0 0 1 -5.61719,-9.75391 l 4.11328,-15.38086 a 15.892301,15.925302 0 0 1 19.46484,-11.26367 l 32.30274,8.67578 a 79.461511,79.626514 0 0 1 31.3125,-33.39648 79.461511,79.626514 0 0 0 0.002,0 l -23.83789,-41.376958 -27.52539,15.923829 7.94531,13.792968 6.88282,-3.982421 A 7.9461507,7.9626506 0 0 1 450.05078,88.5 a 7.9461507,7.9626506 0 0 1 -2.9082,10.880859 l -6.88086,3.980471 a 15.892301,15.925302 0 0 1 -21.70899,-5.832033 l -7.94726,-13.791016 a 15.892301,15.925302 0 0 1 5.81641,-21.753906 l 27.52734,-15.925781 a 15.892301,15.925302 0 0 1 21.70898,5.830078 l 24.64453,42.773437 a 79.461511,79.626514 0 0 1 45.71289,-1.339843 l 8.24024,-30.81836 -15.35156,-4.121094 a 7.9461507,7.9626506 0 0 1 -5.61719,-9.753906 7.9461507,7.9626506 0 0 1 7.60351,-5.90039 z M 229.45898,42.78125 A 15.892301,15.925302 0 0 1 245.35156,58.707031 15.892301,15.925302 0 0 1 229.45898,74.632812 15.892301,15.925302 0 0 1 213.56641,58.707031 15.892301,15.925302 0 0 1 229.45898,42.78125 Z m 281.9668,11.205078 a 7.9461507,7.9626506 0 0 1 2.12891,0.269531 7.9461507,7.9626506 0 0 1 5.61914,9.753907 7.9461507,7.9626506 0 0 1 -9.73047,5.630859 7.9461507,7.9626506 0 0 1 -5.61914,-9.751953 7.9461507,7.9626506 0 0 1 7.60156,-5.902344 z m -377.32031,4.720703 v 0.002 a 15.892301,15.925302 0 0 1 15.89062,15.925782 15.892301,15.925302 0 0 1 -15.89062,15.925781 31.784603,31.850603 0 0 0 -31.78516,31.849616 v 15.92578 h 15.89258 a 15.892301,15.925302 0 0 1 15.89258,15.92578 15.892301,15.925302 0 0 1 -15.89258,15.92383 h -15.89258 v 79.6269 A 15.892301,15.925302 0 0 1 86.427734,265.73828 15.892301,15.925302 0 0 1 70.535156,249.8125 V 170.18555 H 54.642578 A 15.892301,15.925302 0 0 1 38.75,154.26172 15.892301,15.925302 0 0 1 54.642578,138.33594 h 15.892578 v -15.92578 a 63.569206,63.701207 0 0 1 62.228514,-63.634769 15.892301,15.925302 0 0 1 1.3418,-0.06836 z m 388.56055,14.783203 a 7.9461507,7.9626506 0 0 1 2.125,0.271485 7.9461507,7.9626506 0 0 1 5.62109,9.751953 7.9461507,7.9626506 0 0 1 -9.73242,5.632812 7.9461507,7.9626506 0 0 1 -5.61914,-9.755859 7.9461507,7.9626506 0 0 1 7.60547,-5.900391 z m -356.77735,17.06836 v 0.002 a 15.892301,15.925302 0 0 1 15.89258,15.923836 V 249.8125 a 31.784603,31.850603 0 0 0 31.78516,31.85156 h 47.67578 a 15.892301,15.925302 0 0 1 15.89258,15.92383 15.892301,15.925302 0 0 1 -15.89258,15.92383 H 213.56641 A 63.569206,63.701207 0 0 1 149.99609,249.81055 V 106.48242 a 15.892301,15.925302 0 0 1 15.89258,-15.923826 z m 63.57031,0 a 15.892301,15.925302 0 0 1 15.89258,15.923826 v 127.40235 a 15.892301,15.925302 0 0 1 -15.89258,15.92578 15.892301,15.925302 0 0 1 -15.89257,-15.92578 V 106.48242 a 15.892301,15.925302 0 0 1 15.89257,-15.923826 z m 249.69141,15.333986 v 0.002 a 7.9461507,7.9626506 0 0 0 -3.78711,1.0625 7.9461507,7.9626506 0 0 0 -2.9082,10.87695 l 7.94726,13.79297 a 7.9461507,7.9626506 0 0 0 10.85352,2.91407 l 3.97266,6.89843 -20.64649,11.94141 a 7.9461507,7.9626506 0 0 0 -2.9082,10.87891 l 11.91797,20.6875 a 7.9461507,7.9626506 0 0 0 10.85547,2.91601 l 6.88476,-3.98242 27.80859,48.27148 a 7.9461507,7.9626506 0 0 0 10.85743,2.91407 7.9461507,7.9626506 0 0 0 2.9082,-10.87696 l 13.76367,-7.96289 a 7.9461507,7.9626506 0 0 0 2.9082,-10.87695 l -7.94726,-13.79297 13.76367,-7.96094 a 7.9461507,7.9626506 0 0 0 2.9082,-10.8789 l -15.89257,-27.58203 a 7.9461507,7.9626506 0 0 0 -10.85352,-2.91407 l -20.64453,11.94336 a 7.9461507,7.9626506 0 0 0 -2.9082,10.87696 7.9461507,7.9626506 0 0 0 10.85351,2.91406 l 13.76367,-7.96289 7.94532,13.79297 -13.76172,7.96289 a 7.9461507,7.9626506 0 0 0 -2.91016,10.87695 l 7.94727,13.79102 -6.88086,3.98046 -23.83985,-41.37304 a 7.9461507,7.9626506 0 0 0 -10.85351,-2.91602 l -6.88477,3.98242 -3.9707,-6.89648 20.64453,-11.94336 a 7.9461507,7.9626506 0 0 0 2.9082,-10.87695 l -11.91796,-20.69141 a 7.9461507,7.9626506 0 0 0 -10.85547,-2.91406 l -3.97266,-6.89649 a 7.9461507,7.9626506 0 0 0 -6.50977,-3.9707 7.9461507,7.9626506 0 0 0 -0.55859,-0.008 z m 155.5625,13.61133 a 15.892301,15.925302 0 0 1 -1.19531,0.77343 l -42.68555,24.69727 a 79.461511,79.626514 0 0 1 1.33789,45.80664 l 30.75391,8.25781 4.11328,-15.38281 a 7.9461507,7.9626506 0 0 1 7.67578,-5.89258 z m -207.86914,35.42968 a 7.9461507,7.9626506 0 0 1 2.125,0.27149 7.9461507,7.9626506 0 0 1 5.62109,9.7539 7.9461507,7.9626506 0 0 1 -9.73437,5.62891 7.9461507,7.9626506 0 0 1 -5.61719,-9.75391 7.9461507,7.9626506 0 0 1 7.60547,-5.90039 z M 623.4043,158.25 a 7.9461507,7.9626506 0 0 1 2.12695,0.27344 7.9461507,7.9626506 0 0 1 5.61719,9.75195 7.9461507,7.9626506 0 0 1 -9.73047,5.62891 7.9461507,7.9626506 0 0 1 -5.61719,-9.75196 7.9461507,7.9626506 0 0 1 7.60352,-5.90234 z m -216.02735,7.94727 a 7.9461507,7.9626506 0 0 1 2.13086,0.26953 7.9461507,7.9626506 0 0 1 5.61719,9.75195 7.9461507,7.9626506 0 0 1 -9.73047,5.62891 7.9461507,7.9626506 0 0 1 -5.62109,-9.75 7.9461507,7.9626506 0 0 1 7.60351,-5.90039 z m 196.5625,3.31445 a 7.9461507,7.9626506 0 0 1 2.12696,0.27148 7.9461507,7.9626506 0 0 1 5.62109,9.75196 7.9461507,7.9626506 0 0 1 -9.73438,5.63281 7.9461507,7.9626506 0 0 1 -5.61914,-9.75586 7.9461507,7.9626506 0 0 1 7.60547,-5.90039 z m -95.82226,81.44336 a 7.9461507,7.9626506 0 0 1 2.1289,0.27148 7.9461507,7.9626506 0 0 1 5.61914,9.75391 7.9461507,7.9626506 0 0 1 -9.73437,5.62891 7.9461507,7.9626506 0 0 1 -5.61914,-9.75391 7.9461507,7.9626506 0 0 1 7.60547,-5.90039 z m 11.23633,19.50586 a 7.9461507,7.9626506 0 0 1 2.1289,0.27148 7.9461507,7.9626506 0 0 1 5.61914,9.75 7.9461507,7.9626506 0 0 1 -9.73242,5.63086 7.9461507,7.9626506 0 0 1 -5.61719,-9.75195 7.9461507,7.9626506 0 0 1 7.60157,-5.90039 z"
         transform="matrix(0.26262107,0,0,0.26264793,317.22524,-321.80349)"
         id="path5601-3"
         inkscape:connector-curvature="0" />
    </g>
    <path
       style="fill:#de1921;fill-opacity:1;stroke-width:0.01661606"
       inkscape:connector-curvature="0"
       d="m 303.27789,52.417892 c -1.69485,0.215972 -3.68871,0.747727 -5.61621,1.511981 -0.91389,0.349013 -1.7613,0.714495 -1.86101,0.780956 -0.13291,0.0834 0.59823,0.465293 1.99392,1.013633 8.34128,3.356446 15.93481,8.075419 21.18543,13.20975 l 1.87775,1.844349 0.33219,-0.415358 c 0.68138,-0.88065 1.44563,-2.675239 1.64509,-3.854968 0.29907,-1.694781 0.0337,-3.27334 -0.8309,-5.051226 -1.42893,-2.974317 -3.57242,-4.669156 -6.46362,-5.134331 l -0.73104,-0.116396 0.53165,0.88065 c 1.87768,3.140473 2.89115,6.048271 2.80815,8.075477 l -0.0499,1.129853 -0.56499,-1.578501 c -1.5452,-4.386606 -3.45602,-8.540711 -4.56933,-10.002932 -1.29602,-1.694837 -5.84883,-2.774814 -9.68716,-2.292937 z"
       id="path10-4"
       inkscape:export-xdpi="90.690002"
       inkscape:export-ydpi="90.690002" />
    <path
       style="fill:#de1921;fill-opacity:1;stroke-width:0.01661606"
       inkscape:connector-curvature="0"
       d="m 297.44571,57.784841 c 1.31259,2.326227 3.30657,6.330704 3.52254,7.045199 0.16614,0.531755 1.08009,0.614803 4.61927,0.398831 1.67826,-0.09957 3.33992,-0.182742 3.70534,-0.166213 h 0.66468 l -0.74766,0.232675 c -1.41246,0.448589 -3.72205,0.747726 -5.68268,0.747726 -1.08009,0 -1.96075,0.04988 -1.96075,0.132924 0,0.199386 0.83078,1.362471 1.89429,2.675064 3.19029,3.871672 8.75657,7.095077 14.67198,8.474307 1.79441,0.415358 4.63586,0.847419 5.68266,0.847419 1.19638,0 0.5981,0.282434 -1.296,0.581513 -1.22973,0.215972 -2.25989,0.265906 -3.65564,0.215972 -2.4425,-0.116279 -3.63889,-0.498406 -7.27776,-2.376101 l -2.70847,-1.379058 0.79765,0.99693 c 2.04374,2.625305 5.86537,5.333717 9.55417,6.79594 0.48188,0.199443 1.61174,0.515107 2.52562,0.731196 1.62837,0.365425 1.64496,0.382128 0.99692,0.498408 -1.52867,0.299078 -5.30042,-0.415359 -9.28831,-1.761243 -1.0801,-0.365541 -1.99398,-0.631446 -2.02721,-0.598215 -0.13281,0.132924 2.04386,2.010561 2.97432,2.575545 2.67524,1.611674 5.53316,2.376103 8.95613,2.425862 1.16308,0 1.97727,0.066 1.82764,0.132983 -0.14951,0.066 -1.36252,0.116337 -2.69176,0.116337 -2.54226,0.01624 -4.8519,-0.332311 -5.99834,-0.88065 -0.41547,-0.216089 -0.14963,0.116278 1.01346,1.212902 1.82782,1.728069 1.92751,1.645019 -1.41229,1.262777 -1.17973,-0.132923 -2.22659,-0.249203 -2.32629,-0.249203 -0.0833,0 1.08003,0.830774 2.59219,1.844348 l 2.77482,1.82782 2.95761,0.48182 c 1.64509,0.265906 4.80214,0.714495 7.04533,0.997046 2.24311,0.265789 4.30343,0.531638 4.60256,0.564867 0.43206,0.066 0.51506,0.03364 0.43206,-0.199385 -0.24919,-0.764313 -4.81872,-9.853246 -5.86552,-11.664422 -4.46965,-7.77634 -8.7898,-12.91073 -14.40613,-17.097891 -4.76873,-3.55589 -11.46503,-7.294521 -17.01483,-9.487764 l -0.76432,-0.299079 z"
       id="path14-9"
       inkscape:export-xdpi="90.690002"
       inkscape:export-ydpi="90.690002" />
    <path
       style="fill:#427331;fill-opacity:1;stroke-width:0.01661606"
       inkscape:connector-curvature="0"
       d="m 321.18996,58.515923 c 0.83089,1.129853 1.09675,1.395701 1.57862,1.545327 0.5317,0.182742 7.95902,7.52702 8.95607,8.889549 0.28244,0.365541 0.74773,0.930526 1.06339,1.246248 0.91388,0.963699 2.94097,4.1207 3.82162,5.981751 1.54539,3.273455 1.92752,5.815596 1.778,11.631191 -0.0499,2.24318 -0.14956,4.419954 -0.19939,4.851898 l -0.0995,0.764428 0.73103,0.09957 c 0.38224,0.04988 3.25675,0.365599 6.36405,0.681264 3.10712,0.315666 7.44397,0.814189 9.63721,1.080037 3.85497,0.481877 10.76719,1.561913 11.29901,1.7613 0.18267,0.0834 0.13286,-0.1828 -0.23268,-0.996989 -1.56192,-3.456195 -2.39269,-7.576953 -3.17359,-15.635727 -0.9804,-10.152384 -1.64507,-11.980204 -5.06804,-13.990707 -2.85793,-1.678194 -6.29742,-2.45915 -15.70213,-3.539187 -5.21739,-0.598215 -6.99539,-0.864121 -9.22186,-1.412462 -1.27948,-0.298963 -9.45454,-2.575371 -11.44845,-3.173587 -0.2825,-0.09957 -0.2825,-0.066 -0.0833,0.215972 z"
       id="path18-9"
       inkscape:export-xdpi="90.690002"
       inkscape:export-ydpi="90.690002" />
    <path
       style="fill:#de1921;fill-opacity:1;stroke-width:0.01661606"
       inkscape:connector-curvature="0"
       d="m 322.96796,62.071811 c 0.18275,0.764255 0.26586,1.894224 0.26586,3.971248 0.0162,3.223521 -0.19939,4.353374 -0.99699,5.300487 l -0.43194,0.515109 0.81418,0.963699 c 3.37303,3.921429 7.32758,10.285365 10.46811,16.815456 0.94711,1.960685 1.86087,3.838265 2.0105,4.154046 0.2492,0.498407 0.36554,0.581571 0.86401,0.581571 h 0.58151 l 0.19944,-1.329296 c 0.7976,-5.466642 0.61475,-10.983276 -0.46517,-14.372835 -0.3656,-1.146555 -2.09368,-4.652511 -2.29311,-4.652511 -0.0661,0 -0.33232,0.880533 -0.58152,1.944041 -0.2659,1.080036 -0.54834,2.077022 -0.63151,2.209947 -0.11621,0.199386 -0.13291,0.166154 -0.0659,-0.0834 0.0499,-0.182742 0.28261,-1.329297 0.51522,-2.525613 l 0.43195,-2.209889 -0.78097,-1.096739 c -0.96369,-1.345883 -0.83077,-1.595202 -1.64496,3.09054 -0.33237,1.861051 -0.63145,3.422965 -0.66468,3.472724 -0.1662,0.149627 -0.0499,-2.492323 0.23262,-5.632739 l 0.29915,-3.240165 -0.76432,-0.897236 c -0.91388,-1.096623 -5.28396,-5.732606 -6.6299,-7.061845 l -0.99688,-0.963699 z"
       id="path26-1"
       inkscape:export-xdpi="90.690002"
       inkscape:export-ydpi="90.690002" />
    <path
       style="fill:#427331;fill-opacity:1;stroke-width:0.01661606"
       inkscape:connector-curvature="0"
       d="m 302.16455,70.180461 c -0.0499,0.149511 -0.31566,1.379056 -0.5981,2.758229 -0.91388,4.369962 -1.6616,7.576954 -2.34286,9.986288 -0.3489,1.279363 -0.64798,2.409332 -0.64798,2.509026 0,0.365482 7.85933,2.808046 12.46203,3.871438 1.2296,0.282551 2.39268,0.564985 2.57554,0.61486 0.21598,0.06605 0.11622,-0.09957 -0.29913,-0.481936 -0.78096,-0.747726 -0.84741,-1.511981 -0.18286,-2.193246 0.34902,-0.348895 0.59821,-0.432059 1.22973,-0.432059 0.76424,0 0.79748,-0.01624 0.61474,-0.382127 -0.0833,-0.199387 -0.66468,-0.681265 -1.2629,-1.063392 -2.32622,-1.478866 -3.63888,-3.007549 -3.40626,-3.954719 0.13292,-0.564869 0.83083,-1.080036 1.46216,-1.080036 l 0.51511,-0.01624 -0.78096,-0.664561 c -0.88064,-0.747726 -2.22647,-2.376103 -3.30656,-4.004479 -0.48182,-0.697908 -1.12986,-1.379173 -1.81113,-1.894282 -0.59821,-0.448589 -1.7613,-1.495452 -2.60871,-2.326169 -1.12985,-1.12997 -1.56191,-1.445692 -1.61186,-1.246248 z"
       id="path32-9"
       inkscape:export-xdpi="90.690002"
       inkscape:export-ydpi="90.690002" />
    <path
       style="fill:#427331;fill-opacity:1;stroke-width:0.01661606"
       inkscape:connector-curvature="0"
       d="m 287.72526,85.865947 c -2.25976,0.714497 -3.157,3.190292 -2.79151,7.693292 0.31578,3.7054 0.78095,5.067871 2.01061,5.782361 0.56487,0.3489 0.86401,0.3489 13.54207,0.46529 32.56746,0.28244 54.83297,1.47876 78.17852,4.22046 1.96068,0.23261 3.82174,0.3656 4.12087,0.31566 2.99086,-0.54834 -6.91239,-4.41984 -15.91827,-6.23101 -6.48028,-1.296008 -12.54508,-1.977273 -27.00113,-2.990847 -10.5678,-0.747726 -15.08733,-1.146555 -19.83954,-1.7613 -10.10251,-1.296066 -17.57977,-3.107183 -25.60525,-6.214425 -3.75528,-1.462221 -5.20097,-1.744656 -6.69637,-1.279481 z"
       id="path48-4"
       inkscape:export-xdpi="90.690002"
       inkscape:export-ydpi="90.690002" />
  </g>
</svg>
